Scypha_default.ufo
<glyph name="exclam" format="2">
  <advance width="255"/>
  <unicode hex="0021"/>
  <outline>
    <contour>
      <point x="87" y="234" type="line"/>
      <point x="168" y="234" type="line"/>
      <point x="177" y="750" type="line"/>
      <point x="78" y="750" type="line"/>
    </contour>
    <contour>
      <point x="183" y="55" type="curve" smooth="yes"/>
      <point x="183" y="87"/>
      <point x="157" y="112"/>
      <point x="127" y="112" type="curve" smooth="yes"/>
      <point x="97" y="112"/>
      <point x="72" y="87"/>
      <point x="72" y="55" type="curve" smooth="yes"/>
      <point x="72" y="25"/>
      <point x="97" y="0"/>
      <point x="127" y="0" type="curve" smooth="yes"/>
      <point x="157" y="0"/>
      <point x="183" y="25"/>
    </contour>
  </outline>
</glyph>
<glyph name="numbersign" format="2">
  <advance width="826"/>
  <unicode hex="0023"/>
  <outline>
    <contour>
      <point x="151" y="1" type="line"/>
      <point x="223" y="1" type="line"/>
      <point x="415" y="747" type="line"/>
      <point x="343" y="747" type="line"/>
    </contour>
    <contour>
      <point x="411" y="1" type="line"/>
      <point x="483" y="1" type="line"/>
      <point x="675" y="747" type="line"/>
      <point x="603" y="747" type="line"/>
    </contour>
    <contour>
      <point x="724" y="127" type="line"/>
      <point x="724" y="199" type="line"/>
      <point x="102" y="359" type="line"/>
      <point x="102" y="287" type="line"/>
    </contour>
    <contour>
      <point x="724" y="387" type="line"/>
      <point x="724" y="459" type="line"/>
      <point x="102" y="619" type="line"/>
      <point x="102" y="547" type="line"/>
    </contour>
  </outline>
</glyph>
<glyph name="dollar" format="2">
  <advance width="677"/>
  <unicode hex="0024"/>
  <outline>
    <contour>
      <point x="335" y="0" type="curve" smooth="yes"/>
      <point x="521" y="0"/>
      <point x="610" y="80"/>
      <point x="610" y="205" type="curve" smooth="yes"/>
      <point x="610" y="329"/>
      <point x="523" y="390"/>
      <point x="409" y="413" type="curve" smooth="yes"/>
      <point x="313" y="432" type="line" smooth="yes"/>
      <point x="185" y="458"/>
      <point x="152" y="501"/>
      <point x="152" y="555" type="curve" smooth="yes"/>
      <point x="152" y="615"/>
      <point x="193" y="669"/>
      <point x="342" y="669" type="curve" smooth="yes"/>
      <point x="406" y="669"/>
      <point x="481" y="659"/>
      <point x="572" y="600" type="curve"/>
      <point x="572" y="689" type="line"/>
      <point x="518" y="722"/>
      <point x="436" y="750"/>
      <point x="336" y="750" type="curve" smooth="yes"/>
      <point x="161" y="750"/>
      <point x="67" y="666"/>
      <point x="67" y="551" type="curve" smooth="yes"/>
      <point x="67" y="456"/>
      <point x="131" y="383"/>
      <point x="263" y="356" type="curve" smooth="yes"/>
      <point x="361" y="336" type="line" smooth="yes"/>
      <point x="481" y="312"/>
      <point x="524" y="275"/>
      <point x="524" y="203" type="curve" smooth="yes"/>
      <point x="524" y="134"/>
      <point x="485" y="81"/>
      <point x="333" y="81" type="curve" smooth="yes"/>
      <point x="252" y="81"/>
      <point x="160" y="96"/>
      <point x="68" y="155" type="curve"/>
      <point x="68" y="63" type="line"/>
      <point x="122" y="27"/>
      <point x="226" y="0"/>
    </contour>
    <contour>
      <point x="294" y="-58" type="line"/>
      <point x="378" y="-58" type="line"/>
      <point x="378" y="800" type="line"/>
      <point x="294" y="800" type="line"/>
    </contour>
  </outline>
</glyph>
<glyph name="ampersand" format="2">
  <advance width="779"/>
  <unicode hex="0026"/>
  <outline>
    <contour>
      <point x="560" y="398" type="curve"/>
      <point x="638" y="398" type="line"/>
      <point x="654" y="355"/>
      <point x="661" y="317"/>
      <point x="661" y="281" type="curve" smooth="yes"/>
      <point x="661" y="98"/>
      <point x="486" y="-15"/>
      <point x="308" y="-15" type="curve" smooth="yes"/>
      <point x="171" y="-15"/>
      <point x="82" y="51"/>
      <point x="82" y="173" type="curve" smooth="yes"/>
      <point x="82" y="271"/>
      <point x="139" y="343"/>
      <point x="237" y="408" type="curve" smooth="yes"/>
      <point x="360" y="489" type="line" smooth="yes"/>
      <point x="408" y="521"/>
      <point x="434" y="555"/>
      <point x="434" y="599" type="curve" smooth="yes"/>
      <point x="434" y="660"/>
      <point x="393" y="693"/>
      <point x="341" y="693" type="curve" smooth="yes"/>
      <point x="281" y="693"/>
      <point x="248" y="649"/>
      <point x="248" y="594" type="curve" smooth="yes"/>
      <point x="248" y="550"/>
      <point x="268" y="503"/>
      <point x="319" y="444" type="curve" smooth="yes"/>
      <point x="701" y="1" type="line"/>
      <point x="603" y="1" type="line"/>
      <point x="261" y="393" type="line" smooth="yes"/>
      <point x="198" y="466"/>
      <point x="167" y="533"/>
      <point x="167" y="597" type="curve" smooth="yes"/>
      <point x="167" y="693"/>
      <point x="229" y="765"/>
      <point x="343" y="765" type="curve" smooth="yes"/>
      <point x="455" y="765"/>
      <point x="515" y="697"/>
      <point x="515" y="606" type="curve" smooth="yes"/>
      <point x="515" y="521"/>
      <point x="457" y="458"/>
      <point x="372" y="402" type="curve" smooth="yes"/>
      <point x="261" y="329" type="line" smooth="yes"/>
      <point x="195" y="285"/>
      <point x="164" y="239"/>
      <point x="164" y="179" type="curve" smooth="yes"/>
      <point x="164" y="101"/>
      <point x="217" y="59"/>
      <point x="325" y="59" type="curve" smooth="yes"/>
      <point x="478" y="59"/>
      <point x="585" y="151"/>
      <point x="585" y="283" type="curve" smooth="yes"/>
      <point x="585" y="318"/>
      <point x="577" y="355"/>
    </contour>
  </outline>
</glyph>
<glyph name="quotesingle" format="2">
  <advance width="282"/>
  <unicode hex="0027"/>
  <outline>
    <contour>
      <point x="166" y="516" type="line"/>
      <point x="192" y="687" type="line" smooth="yes"/>
      <point x="194" y="699"/>
      <point x="195" y="710"/>
      <point x="195" y="717" type="curve" smooth="yes"/>
      <point x="195" y="747"/>
      <point x="171" y="770"/>
      <point x="141" y="770" type="curve" smooth="yes"/>
      <point x="111" y="770"/>
      <point x="86" y="747"/>
      <point x="87" y="717" type="curve" smooth="yes"/>
      <point x="87" y="710"/>
      <point x="88" y="699"/>
      <point x="90" y="687" type="curve" smooth="yes"/>
      <point x="116" y="516" type="line"/>
    </contour>
  </outline>
</glyph>
<glyph name="parenleft" format="2">
  <advance width="521"/>
  <unicode hex="0028"/>
  <outline>
    <contour>
      <point x="317" y="750" type="line"/>
      <point x="192" y="584"/>
      <point x="130" y="417"/>
      <point x="130" y="250" type="curve" smooth="yes"/>
      <point x="130" y="83"/>
      <point x="192" y="-83"/>
      <point x="317" y="-250" type="curve"/>
      <point x="401" y="-250" type="line"/>
      <point x="276" y="-83"/>
      <point x="214" y="83"/>
      <point x="214" y="250" type="curve" smooth="yes"/>
      <point x="214" y="417"/>
      <point x="276" y="584"/>
      <point x="401" y="750" type="curve"/>
    </contour>
  </outline>
</glyph>
<glyph name="asterisk" format="2">
  <advance width="408"/>
  <unicode hex="002A"/>
  <outline>
    <contour>
      <point x="186" y="750" type="line"/>
      <point x="186" y="531" type="line"/>
      <point x="222" y="531" type="line"/>
      <point x="222" y="750" type="line"/>
    </contour>
    <contour>
      <point x="290" y="711" type="line"/>
      <point x="100" y="603" type="line"/>
      <point x="118" y="570" type="line"/>
      <point x="308" y="677" type="line"/>
    </contour>
    <contour>
      <point x="308" y="603" type="line"/>
      <point x="118" y="711" type="line"/>
      <point x="100" y="677" type="line"/>
      <point x="290" y="570" type="line"/>
    </contour>
  </outline>
</glyph>
<glyph name="comma" format="2">
  <advance width="293"/>
  <unicode hex="002C"/>
  <outline>
    <contour>
      <point x="88" y="-137" type="curve"/>
      <point x="122" y="-137" type="line"/>
      <point x="166" y="-92"/>
      <point x="210" y="-27"/>
      <point x="210" y="34" type="curve" smooth="yes"/>
      <point x="210" y="79"/>
      <point x="186" y="104"/>
      <point x="154" y="104" type="curve" smooth="yes"/>
      <point x="122" y="104"/>
      <point x="97" y="79"/>
      <point x="97" y="48" type="curve"/>
      <point x="115" y="38"/>
      <point x="130" y="14"/>
      <point x="130" y="-17" type="curve" smooth="yes"/>
      <point x="130" y="-52"/>
      <point x="114" y="-100"/>
    </contour>
  </outline>
</glyph>
<glyph name="hyphen" format="2">
  <advance width="560"/>
  <unicode hex="002D"/>
  <outline>
    <contour>
      <point x="460" y="410" type="line"/>
      <point x="100" y="410" type="line"/>
      <point x="100" y="332" type="line"/>
      <point x="460" y="332" type="line"/>
    </contour>
  </outline>
</glyph>
<glyph name="period" format="2">
  <advance width="313"/>
  <unicode hex="002E"/>
  <outline>
    <contour>
      <point x="157" y="-9" type="curve" smooth="yes"/>
      <point x="188" y="-9"/>
      <point x="213" y="16"/>
      <point x="213" y="48" type="curve" smooth="yes"/>
      <point x="213" y="79"/>
      <point x="188" y="104"/>
      <point x="157" y="104" type="curve" smooth="yes"/>
      <point x="125" y="104"/>
      <point x="100" y="79"/>
      <point x="100" y="48" type="curve" smooth="yes"/>
      <point x="100" y="16"/>
      <point x="125" y="-9"/>
    </contour>
  </outline>
</glyph>
<glyph name="slash" format="2">
  <advance width="558"/>
  <unicode hex="002F"/>
  <outline>
    <contour>
      <point x="376" y="747" type="line"/>
      <point x="100" y="-250" type="line"/>
      <point x="182" y="-250" type="line"/>
      <point x="458" y="747" type="line"/>
    </contour>
  </outline>
</glyph>
<glyph name="zero" format="2">
  <advance width="722"/>
  <unicode hex="0030"/>
  <outline>
    <contour>
      <point x="361" y="-15" type="curve" smooth="yes"/>
      <point x="543" y="-15"/>
      <point x="658" y="135"/>
      <point x="658" y="375" type="curve" smooth="yes"/>
      <point x="658" y="615"/>
      <point x="543" y="765"/>
      <point x="361" y="765" type="curve" smooth="yes"/>
      <point x="179" y="765"/>
      <point x="64" y="615"/>
      <point x="64" y="375" type="curve" smooth="yes"/>
      <point x="64" y="135"/>
      <point x="179" y="-15"/>
    </contour>
    <contour>
      <point x="361" y="69" type="curve" smooth="yes"/>
      <point x="228" y="69"/>
      <point x="154" y="179"/>
      <point x="154" y="375" type="curve" smooth="yes"/>
      <point x="154" y="571"/>
      <point x="228" y="681"/>
      <point x="361" y="681" type="curve" smooth="yes"/>
      <point x="494" y="681"/>
      <point x="568" y="571"/>
      <point x="568" y="375" type="curve" smooth="yes"/>
      <point x="568" y="179"/>
      <point x="494" y="69"/>
    </contour>
  </outline>
</glyph>
<glyph name="one" format="2">
  <advance width="382"/>
  <unicode hex="0031"/>
  <outline>
    <contour>
      <point x="205" y="750" type="line"/>
      <point x="205" y="0" type="line"/>
      <point x="292" y="0" type="line"/>
      <point x="292" y="750" type="line"/>
    </contour>
    <contour>
      <point x="205" y="750" type="line"/>
      <point x="20" y="630" type="line"/>
      <point x="65" y="560" type="line"/>
      <point x="250" y="680" type="line"/>
    </contour>
  </outline>
</glyph>
<glyph name="two" format="2">
  <advance width="585"/>
  <unicode hex="0032"/>
  <outline>
    <contour>
      <point x="116" y="77" type="line"/>
      <point x="531" y="77" type="line"/>
      <point x="531" y="0" type="line"/>
      <point x="54" y="0" type="line"/>
      <point x="54" y="161"/>
      <point x="140" y="250"/>
      <point x="249" y="324" type="curve" smooth="yes"/>
      <point x="353" y="395"/>
      <point x="446" y="443"/>
      <point x="446" y="557" type="curve" smooth="yes"/>
      <point x="446" y="618"/>
      <point x="407" y="684"/>
      <point x="286" y="684" type="curve" smooth="yes"/>
      <point x="219" y="684"/>
      <point x="156" y="673"/>
      <point x="76" y="605" type="curve"/>
      <point x="76" y="694" type="line"/>
      <point x="123" y="732"/>
      <point x="195" y="765"/>
      <point x="290" y="765" type="curve" smooth="yes"/>
      <point x="444" y="765"/>
      <point x="531" y="680"/>
      <point x="531" y="557" type="curve" smooth="yes"/>
      <point x="531" y="423"/>
      <point x="418" y="341"/>
      <point x="324" y="282" type="curve" smooth="yes"/>
      <point x="211" y="212"/>
      <point x="140" y="134"/>
      <point x="140" y="23" type="curve"/>
    </contour>
  </outline>
</glyph>
<glyph name="three" format="2">
  <advance width="635"/>
  <unicode hex="0033"/>
  <outline>
    <contour>
      <point x="301" y="-14" type="curve" smooth="yes"/>
      <point x="470" y="-14"/>
      <point x="565" y="71"/>
      <point x="565" y="193" type="curve" smooth="yes"/>
      <point x="565" y="318"/>
      <point x="450" y="389"/>
      <point x="338" y="389" type="curve"/>
      <point x="332" y="377" type="line"/>
      <point x="439" y="377"/>
      <point x="549" y="443"/>
      <point x="549" y="557" type="curve" smooth="yes"/>
      <point x="549" y="680"/>
      <point x="462" y="765"/>
      <point x="308" y="765" type="curve" smooth="yes"/>
      <point x="209" y="765"/>
      <point x="134" y="732"/>
      <point x="84" y="694" type="curve"/>
      <point x="84" y="605" type="line"/>
      <point x="167" y="673"/>
      <point x="233" y="684"/>
      <point x="304" y="684" type="curve" smooth="yes"/>
      <point x="425" y="684"/>
      <point x="464" y="618"/>
      <point x="464" y="557" type="curve" smooth="yes"/>
      <point x="464" y="463"/>
      <point x="360" y="419"/>
      <point x="256" y="419" type="curve" smooth="yes"/>
      <point x="156" y="419" type="line"/>
      <point x="156" y="347" type="line"/>
      <point x="262" y="347" type="line" smooth="yes"/>
      <point x="371" y="347"/>
      <point x="480" y="298"/>
      <point x="480" y="193" type="curve" smooth="yes"/>
      <point x="480" y="132"/>
      <point x="435" y="67"/>
      <point x="297" y="67" type="curve" smooth="yes"/>
      <point x="222" y="67"/>
      <point x="152" y="78"/>
      <point x="64" y="146" type="curve"/>
      <point x="64" y="57" type="line"/>
      <point x="117" y="19"/>
      <point x="197" y="-14"/>
    </contour>
  </outline>
</glyph>
<glyph name="four" format="2">
  <advance width="635"/>
  <unicode hex="0034"/>
  <outline>
    <contour>
      <point x="421" y="698" type="line"/>
      <point x="405" y="698" type="line"/>
      <point x="405" y="0" type="line"/>
      <point x="486" y="0" type="line"/>
      <point x="486" y="750" type="line"/>
      <point x="365" y="750" type="line"/>
      <point x="29" y="246" type="line"/>
      <point x="29" y="180" type="line"/>
      <point x="606" y="180" type="line"/>
      <point x="606" y="256" type="line"/>
      <point x="91" y="256" type="line"/>
      <point x="91" y="199" type="line"/>
    </contour>
  </outline>
</glyph>
<glyph name="five" format="2">
  <advance width="639"/>
  <unicode hex="0035"/>
  <outline>
    <contour>
      <point x="537" y="750" type="line"/>
      <point x="537" y="673" type="line"/>
      <point x="165" y="673" type="line"/>
      <point x="194" y="692" type="line"/>
      <point x="161" y="416" type="line"/>
      <point x="140" y="425" type="line"/>
      <point x="188" y="459"/>
      <point x="252" y="481"/>
      <point x="331" y="481" type="curve" smooth="yes"/>
      <point x="485" y="481"/>
      <point x="572" y="380"/>
      <point x="572" y="235" type="curve" smooth="yes"/>
      <point x="572" y="88"/>
      <point x="478" y="-14"/>
      <point x="311" y="-14" type="curve" smooth="yes"/>
      <point x="204" y="-14"/>
      <point x="121" y="19"/>
      <point x="67" y="57" type="curve"/>
      <point x="67" y="146" type="line"/>
      <point x="158" y="78"/>
      <point x="230" y="67"/>
      <point x="307" y="67" type="curve" smooth="yes"/>
      <point x="443" y="67"/>
      <point x="487" y="154"/>
      <point x="487" y="235" type="curve" smooth="yes"/>
      <point x="487" y="314"/>
      <point x="448" y="400"/>
      <point x="327" y="400" type="curve" smooth="yes"/>
      <point x="256" y="400"/>
      <point x="190" y="389"/>
      <point x="107" y="321" type="curve"/>
      <point x="73" y="334" type="line"/>
      <point x="121" y="750" type="line"/>
    </contour>
  </outline>
</glyph>
<glyph name="six" format="2">
  <advance width="659"/>
  <unicode hex="0036"/>
  <outline>
    <contour>
      <point x="134" y="279" type="line"/>
      <point x="193" y="370"/>
      <point x="271" y="397"/>
      <point x="341" y="397" type="curve" smooth="yes"/>
      <point x="470" y="397"/>
      <point x="507" y="309"/>
      <point x="507" y="232" type="curve" smooth="yes"/>
      <point x="507" y="154"/>
      <point x="469" y="67"/>
      <point x="343" y="67" type="curve" smooth="yes"/>
      <point x="214" y="67"/>
      <point x="147" y="159"/>
      <point x="147" y="364" type="curve" smooth="yes"/>
      <point x="147" y="573"/>
      <point x="219" y="686"/>
      <point x="377" y="686" type="curve" smooth="yes"/>
      <point x="459" y="686"/>
      <point x="520" y="657"/>
      <point x="563" y="622" type="curve"/>
      <point x="563" y="714" type="line"/>
      <point x="522" y="742"/>
      <point x="456" y="765"/>
      <point x="375" y="765" type="curve" smooth="yes"/>
      <point x="171" y="765"/>
      <point x="64" y="613"/>
      <point x="64" y="359" type="curve" smooth="yes"/>
      <point x="64" y="113"/>
      <point x="164" y="-15"/>
      <point x="344" y="-15" type="curve" smooth="yes"/>
      <point x="505" y="-15"/>
      <point x="592" y="87"/>
      <point x="592" y="232" type="curve" smooth="yes"/>
      <point x="592" y="375"/>
      <point x="505" y="478"/>
      <point x="355" y="478" type="curve" smooth="yes"/>
      <point x="251" y="478"/>
      <point x="176" y="427"/>
      <point x="134" y="380" type="curve"/>
    </contour>
  </outline>
</glyph>
<glyph name="seven" format="2">
  <advance width="588"/>
  <unicode hex="0037"/>
  <outline>
    <contour>
      <point x="479" y="672" type="line"/>
      <point x="54" y="672" type="line"/>
      <point x="54" y="750" type="line"/>
      <point x="549" y="750" type="line"/>
      <point x="549" y="697" type="line"/>
      <point x="239" y="2" type="line"/>
      <point x="146" y="2" type="line"/>
      <point x="462" y="699" type="line"/>
    </contour>
  </outline>
</glyph>
<glyph name="eight" format="2">
  <advance width="668"/>
  <unicode hex="0038"/>
  <outline>
    <contour>
      <point x="334" y="-14" type="curve" smooth="yes"/>
      <point x="504" y="-14"/>
      <point x="598" y="71"/>
      <point x="598" y="193" type="curve" smooth="yes"/>
      <point x="598" y="318"/>
      <point x="502" y="389"/>
      <point x="409" y="389" type="curve"/>
      <point x="409" y="377" type="line"/>
      <point x="492" y="377"/>
      <point x="578" y="443"/>
      <point x="578" y="557" type="curve" smooth="yes"/>
      <point x="578" y="680"/>
      <point x="491" y="765"/>
      <point x="334" y="765" type="curve" smooth="yes"/>
      <point x="177" y="765"/>
      <point x="90" y="680"/>
      <point x="90" y="557" type="curve" smooth="yes"/>
      <point x="90" y="443"/>
      <point x="175" y="377"/>
      <point x="257" y="377" type="curve"/>
      <point x="257" y="389" type="line"/>
      <point x="165" y="389"/>
      <point x="70" y="318"/>
      <point x="70" y="193" type="curve" smooth="yes"/>
      <point x="70" y="71"/>
      <point x="164" y="-14"/>
    </contour>
    <contour>
      <point x="334" y="67" type="curve" smooth="yes"/>
      <point x="199" y="67"/>
      <point x="155" y="132"/>
      <point x="155" y="193" type="curve" smooth="yes"/>
      <point x="155" y="298"/>
      <point x="245" y="344"/>
      <point x="334" y="344" type="curve" smooth="yes"/>
      <point x="424" y="344"/>
      <point x="513" y="298"/>
      <point x="513" y="193" type="curve" smooth="yes"/>
      <point x="513" y="132"/>
      <point x="469" y="67"/>
    </contour>
    <contour>
      <point x="334" y="423" type="curve" smooth="yes"/>
      <point x="255" y="423"/>
      <point x="175" y="463"/>
      <point x="175" y="557" type="curve" smooth="yes"/>
      <point x="175" y="618"/>
      <point x="214" y="684"/>
      <point x="334" y="684" type="curve" smooth="yes"/>
      <point x="454" y="684"/>
      <point x="493" y="618"/>
      <point x="493" y="557" type="curve" smooth="yes"/>
      <point x="493" y="463"/>
      <point x="414" y="423"/>
    </contour>
  </outline>
</glyph>
<glyph name="question" format="2">
  <advance width="543"/>
  <unicode hex="003F"/>
  <outline>
    <contour>
      <point x="276" y="180" type="curve"/>
      <point x="191" y="180" type="line"/>
      <point x="191" y="289"/>
      <point x="233" y="352"/>
      <point x="293" y="399" type="curve" smooth="yes"/>
      <point x="350" y="443"/>
      <point x="389" y="480"/>
      <point x="389" y="557" type="curve" smooth="yes"/>
      <point x="389" y="618"/>
      <point x="355" y="684"/>
      <point x="249" y="684" type="curve" smooth="yes"/>
      <point x="192" y="684"/>
      <point x="138" y="673"/>
      <point x="69" y="605" type="curve"/>
      <point x="69" y="694" type="line"/>
      <point x="109" y="732"/>
      <point x="171" y="765"/>
      <point x="253" y="765" type="curve" smooth="yes"/>
      <point x="394" y="765"/>
      <point x="474" y="680"/>
      <point x="474" y="557" type="curve" smooth="yes"/>
      <point x="474" y="460"/>
      <point x="416" y="396"/>
      <point x="363" y="357" type="curve" smooth="yes"/>
      <point x="289" y="302"/>
      <point x="276" y="264"/>
    </contour>
    <component base="period" xOffset="79"/>
  </outline>
</glyph>
<glyph name="at" format="2">
  <advance width="870"/>
  <unicode hex="0040"/>
  <outline>
    <contour>
      <point x="568" y="270" type="curve" smooth="yes"/>
      <point x="568" y="368"/>
      <point x="520" y="456"/>
      <point x="416" y="456" type="curve" smooth="yes"/>
      <point x="319" y="456"/>
      <point x="250" y="383"/>
      <point x="250" y="270" type="curve" smooth="yes"/>
      <point x="250" y="156"/>
      <point x="313" y="84"/>
      <point x="414" y="84" type="curve" smooth="yes"/>
      <point x="519" y="84"/>
      <point x="568" y="176"/>
    </contour>
    <contour>
      <point x="540" y="270" type="curve" smooth="yes"/>
      <point x="540" y="192"/>
      <point x="492" y="146"/>
      <point x="430" y="146" type="curve" smooth="yes"/>
      <point x="368" y="146"/>
      <point x="330" y="196"/>
      <point x="330" y="270" type="curve" smooth="yes"/>
      <point x="330" y="344"/>
      <point x="367" y="394"/>
      <point x="430" y="394" type="curve" smooth="yes"/>
      <point x="494" y="394"/>
      <point x="540" y="348"/>
    </contour>
    <contour>
      <point x="632" y="-124" type="curve"/>
      <point x="632" y="-47" type="line"/>
      <point x="576" y="-68"/>
      <point x="511" y="-81"/>
      <point x="445" y="-81" type="curve" smooth="yes"/>
      <point x="248" y="-81"/>
      <point x="125" y="51"/>
      <point x="125" y="260" type="curve" smooth="yes"/>
      <point x="125" y="472"/>
      <point x="244" y="604"/>
      <point x="435" y="604" type="curve" smooth="yes"/>
      <point x="626" y="604"/>
      <point x="745" y="479"/>
      <point x="745" y="280" type="curve" smooth="yes"/>
      <point x="745" y="190"/>
      <point x="715" y="129"/>
      <point x="668" y="129" type="curve" smooth="yes"/>
      <point x="616" y="129"/>
      <point x="601" y="164"/>
      <point x="601" y="220" type="curve" smooth="yes"/>
      <point x="601" y="445" type="line"/>
      <point x="528" y="445" type="line"/>
      <point x="528" y="209" type="line" smooth="yes"/>
      <point x="528" y="114"/>
      <point x="582" y="59"/>
      <point x="662" y="59" type="curve" smooth="yes"/>
      <point x="768" y="59"/>
      <point x="820" y="152"/>
      <point x="820" y="284" type="curve" smooth="yes"/>
      <point x="820" y="524"/>
      <point x="672" y="675"/>
      <point x="435" y="675" type="curve" smooth="yes"/>
      <point x="198" y="675"/>
      <point x="50" y="515"/>
      <point x="50" y="260" type="curve" smooth="yes"/>
      <point x="50" y="5"/>
      <point x="202" y="-155"/>
      <point x="445" y="-155" type="curve" smooth="yes"/>
      <point x="512" y="-155"/>
      <point x="573" y="-145"/>
    </contour>
  </outline>
</glyph>
<glyph name="A" format="2">
  <advance width="733"/>
  <unicode hex="0041"/>
  <outline>
    <contour>
      <point x="558" y="284" type="line"/>
      <point x="153" y="284" type="line"/>
      <point x="123" y="206" type="line"/>
      <point x="588" y="206" type="line"/>
    </contour>
    <component base="V" xScale="-1" yScale="-1" xOffset="693" yOffset="750"/>
  </outline>
</glyph>
<glyph name="B" format="2">
  <advance width="679"/>
  <unicode hex="0042"/>
  <outline>
    <contour>
      <point x="90" y="750" type="line"/>
      <point x="90" y="0" type="line"/>
      <point x="177" y="0" type="line"/>
      <point x="177" y="750" type="line"/>
    </contour>
    <contour>
      <point x="397" y="348" type="line" smooth="yes"/>
      <point x="487" y="348"/>
      <point x="538" y="300"/>
      <point x="538" y="213" type="curve" smooth="yes"/>
      <point x="538" y="129"/>
      <point x="487" y="81"/>
      <point x="397" y="81" type="curve" smooth="yes"/>
      <point x="156" y="81" type="line"/>
      <point x="156" y="0" type="line"/>
      <point x="397" y="0" type="line" smooth="yes"/>
      <point x="543" y="0"/>
      <point x="625" y="89"/>
      <point x="625" y="209" type="curve" smooth="yes"/>
      <point x="625" y="320"/>
      <point x="558" y="402"/>
      <point x="412" y="402" type="curve"/>
      <point x="412" y="384" type="line"/>
      <point x="522" y="381"/>
      <point x="595" y="455"/>
      <point x="595" y="561" type="curve" smooth="yes"/>
      <point x="595" y="665"/>
      <point x="529" y="750"/>
      <point x="373" y="750" type="curve" smooth="yes"/>
      <point x="156" y="750" type="line"/>
      <point x="156" y="669" type="line"/>
      <point x="367" y="669" type="line" smooth="yes"/>
      <point x="472" y="669"/>
      <point x="508" y="615"/>
      <point x="508" y="555" type="curve" smooth="yes"/>
      <point x="508" y="485"/>
      <point x="472" y="429"/>
      <point x="367" y="429" type="curve" smooth="yes"/>
      <point x="156" y="429" type="line"/>
      <point x="156" y="348" type="line"/>
    </contour>
  </outline>
</glyph>
<glyph name="C" format="2">
  <advance width="678"/>
  <unicode hex="0043"/>
  <outline>
    <contour>
      <point x="632" y="44" type="line"/>
      <point x="584" y="6"/>
      <point x="499" y="-15"/>
      <point x="408" y="-15" type="curve" smooth="yes"/>
      <point x="176" y="-15"/>
      <point x="56" y="122"/>
      <point x="56" y="375" type="curve" smooth="yes"/>
      <point x="56" y="635"/>
      <point x="193" y="765"/>
      <point x="401" y="765" type="curve" smooth="yes"/>
      <point x="496" y="765"/>
      <point x="575" y="738"/>
      <point x="623" y="704" type="curve"/>
      <point x="623" y="611" type="line"/>
      <point x="572" y="650"/>
      <point x="499" y="683"/>
      <point x="405" y="683" type="curve" smooth="yes"/>
      <point x="235" y="683"/>
      <point x="146" y="576"/>
      <point x="146" y="375" type="curve" smooth="yes"/>
      <point x="146" y="180"/>
      <point x="227" y="68"/>
      <point x="413" y="68" type="curve" smooth="yes"/>
      <point x="506" y="68"/>
      <point x="587" y="96"/>
      <point x="632" y="132" type="curve"/>
    </contour>
  </outline>
</glyph>
<glyph name="D" format="2">
  <advance width="729"/>
  <unicode hex="0044"/>
  <outline>
    <contour>
      <point x="90" y="750" type="line"/>
      <point x="90" y="0" type="line"/>
      <point x="177" y="0" type="line"/>
      <point x="177" y="750" type="line"/>
    </contour>
    <contour>
      <point x="339" y="81" type="curve" smooth="yes"/>
      <point x="156" y="81" type="line"/>
      <point x="156" y="0" type="line"/>
      <point x="339" y="0" type="line" smooth="yes"/>
      <point x="579" y="0"/>
      <point x="673" y="165"/>
      <point x="673" y="375" type="curve" smooth="yes"/>
      <point x="673" y="582"/>
      <point x="574" y="750"/>
      <point x="339" y="750" type="curve" smooth="yes"/>
      <point x="156" y="750" type="line"/>
      <point x="156" y="669" type="line"/>
      <point x="339" y="669" type="line" smooth="yes"/>
      <point x="504" y="669"/>
      <point x="582" y="552"/>
      <point x="582" y="375" type="curve" smooth="yes"/>
      <point x="582" y="195"/>
      <point x="504" y="81"/>
    </contour>
  </outline>
</glyph>
<glyph name="E" format="2">
  <advance width="641"/>
  <unicode hex="0045"/>
  <outline>
    <contour>
      <point x="90" y="750" type="line"/>
      <point x="90" y="0" type="line"/>
      <point x="177" y="0" type="line"/>
      <point x="177" y="750" type="line"/>
    </contour>
    <contour>
      <point x="601" y="78" type="line"/>
      <point x="156" y="78" type="line"/>
      <point x="156" y="0" type="line"/>
      <point x="601" y="0" type="line"/>
    </contour>
    <contour>
      <point x="576" y="750" type="line"/>
      <point x="156" y="750" type="line"/>
      <point x="156" y="672" type="line"/>
      <point x="576" y="672" type="line"/>
    </contour>
    <contour>
      <point x="516" y="428" type="line"/>
      <point x="156" y="428" type="line"/>
      <point x="156" y="350" type="line"/>
      <point x="516" y="350" type="line"/>
    </contour>
  </outline>
</glyph>
<glyph name="F" format="2">
  <advance width="598"/>
  <unicode hex="0046"/>
  <outline>
    <contour>
      <point x="90" y="750" type="line"/>
      <point x="90" y="0" type="line"/>
      <point x="177" y="0" type="line"/>
      <point x="177" y="750" type="line"/>
    </contour>
    <contour>
      <point x="576" y="750" type="line"/>
      <point x="156" y="750" type="line"/>
      <point x="156" y="669" type="line"/>
      <point x="576" y="669" type="line"/>
    </contour>
    <contour>
      <point x="516" y="410" type="line"/>
      <point x="156" y="410" type="line"/>
      <point x="156" y="332" type="line"/>
      <point x="516" y="332" type="line"/>
    </contour>
  </outline>
</glyph>
<glyph name="G" format="2">
  <advance width="733"/>
  <unicode hex="0047"/>
  <outline>
    <contour>
      <point x="396" y="-15" type="curve" smooth="yes"/>
      <point x="507" y="-15"/>
      <point x="590" y="6"/>
      <point x="653" y="44" type="curve"/>
      <point x="653" y="132" type="line"/>
      <point x="588" y="92"/>
      <point x="525" y="65"/>
      <point x="414" y="65" type="curve" smooth="yes"/>
      <point x="233" y="65"/>
      <point x="146" y="180"/>
      <point x="146" y="375" type="curve" smooth="yes"/>
      <point x="146" y="576"/>
      <point x="245" y="683"/>
      <point x="426" y="683" type="curve" smooth="yes"/>
      <point x="526" y="683"/>
      <point x="599" y="650"/>
      <point x="653" y="611" type="curve"/>
      <point x="653" y="704" type="line"/>
      <point x="602" y="738"/>
      <point x="523" y="765"/>
      <point x="423" y="765" type="curve" smooth="yes"/>
      <point x="204" y="765"/>
      <point x="56" y="635"/>
      <point x="56" y="375" type="curve" smooth="yes"/>
      <point x="56" y="122"/>
      <point x="197" y="-15"/>
    </contour>
    <contour>
      <point x="589" y="44" type="line"/>
      <point x="673" y="44" type="line"/>
      <point x="673" y="305" type="line"/>
      <point x="589" y="305" type="line"/>
    </contour>
    <contour>
      <point x="388" y="305" type="line"/>
      <point x="673" y="305" type="line"/>
      <point x="673" y="383" type="line"/>
      <point x="388" y="383" type="line"/>
    </contour>
  </outline>
</glyph>
<glyph name="H" format="2">
  <advance width="777"/>
  <unicode hex="0048"/>
  <outline>
    <contour>
      <point x="600" y="750" type="line"/>
      <point x="600" y="0" type="line"/>
      <point x="687" y="0" type="line"/>
      <point x="687" y="750" type="line"/>
    </contour>
    <contour>
      <point x="90" y="750" type="line"/>
      <point x="90" y="0" type="line"/>
      <point x="177" y="0" type="line"/>
      <point x="177" y="750" type="line"/>
    </contour>
    <contour>
      <point x="621" y="417" type="line"/>
      <point x="156" y="417" type="line"/>
      <point x="156" y="339" type="line"/>
      <point x="621" y="339" type="line"/>
    </contour>
  </outline>
</glyph>
<glyph name="I" format="2">
  <advance width="267"/>
  <unicode hex="0049"/>
  <outline>
    <contour>
      <point x="90" y="750" type="line"/>
      <point x="90" y="0" type="line"/>
      <point x="177" y="0" type="line"/>
      <point x="177" y="750" type="line"/>
    </contour>
  </outline>
</glyph>
<glyph name="J" format="2">
  <advance width="568"/>
  <unicode hex="004A"/>
  <outline>
    <contour>
      <point x="516" y="750" type="line"/>
      <point x="141" y="750" type="line"/>
      <point x="141" y="672" type="line"/>
      <point x="516" y="672" type="line"/>
    </contour>
    <contour>
      <point x="264" y="66" type="curve"/>
      <point x="167" y="66"/>
      <point x="87" y="99"/>
      <point x="36" y="138" type="curve"/>
      <point x="36" y="46" type="line"/>
      <point x="84" y="12"/>
      <point x="170" y="-15"/>
      <point x="264" y="-15" type="curve"/>
      <point x="438" y="-15"/>
      <point x="516" y="94"/>
      <point x="516" y="274" type="curve"/>
      <point x="516" y="750" type="line"/>
      <point x="432" y="750" type="line"/>
      <point x="432" y="268" type="line"/>
      <point x="432" y="138"/>
      <point x="381" y="66"/>
    </contour>
  </outline>
</glyph>
<glyph name="K" format="2">
  <advance width="657"/>
  <unicode hex="004B"/>
  <outline>
    <contour>
      <point x="90" y="0" type="line"/>
      <point x="90" y="750" type="line"/>
      <point x="174" y="750" type="line"/>
      <point x="174" y="0" type="line"/>
    </contour>
    <contour>
      <point x="249" y="369" type="line"/>
      <point x="249" y="392" type="line"/>
      <point x="621" y="0" type="line"/>
      <point x="504" y="0" type="line"/>
      <point x="148" y="375" type="line"/>
      <point x="504" y="750" type="line"/>
      <point x="621" y="750" type="line"/>
    </contour>
  </outline>
</glyph>
<glyph name="L" format="2">
  <advance width="637"/>
  <unicode hex="004C"/>
  <outline>
    <contour>
      <point x="90" y="750" type="line"/>
      <point x="90" y="0" type="line"/>
      <point x="177" y="0" type="line"/>
      <point x="177" y="750" type="line"/>
    </contour>
    <contour>
      <point x="601" y="78" type="line"/>
      <point x="156" y="78" type="line"/>
      <point x="156" y="0" type="line"/>
      <point x="601" y="0" type="line"/>
    </contour>
  </outline>
</glyph>
<glyph name="M" format="2">
  <advance width="942"/>
  <unicode hex="004D"/>
  <outline>
    <contour>
      <point x="765" y="750" type="line"/>
      <point x="765" y="0" type="line"/>
      <point x="852" y="0" type="line"/>
      <point x="852" y="750" type="line"/>
    </contour>
    <contour>
      <point x="90" y="750" type="line"/>
      <point x="90" y="0" type="line"/>
      <point x="177" y="0" type="line"/>
      <point x="177" y="750" type="line"/>
    </contour>
    <contour>
      <point x="146" y="750" type="line"/>
      <point x="423" y="0" type="line"/>
      <point x="509" y="0" type="line"/>
      <point x="232" y="750" type="line"/>
    </contour>
    <contour>
      <point x="797" y="750" type="line"/>
      <point x="710" y="750" type="line"/>
      <point x="434" y="0" type="line"/>
      <point x="520" y="0" type="line"/>
    </contour>
  </outline>
</glyph>
<glyph name="N" format="2">
  <advance width="773"/>
  <unicode hex="004E"/>
  <outline>
    <contour>
      <point x="596" y="750" type="line"/>
      <point x="596" y="0" type="line"/>
      <point x="683" y="0" type="line"/>
      <point x="683" y="750" type="line"/>
    </contour>
    <contour>
      <point x="90" y="750" type="line"/>
      <point x="90" y="0" type="line"/>
      <point x="177" y="0" type="line"/>
      <point x="177" y="750" type="line"/>
    </contour>
    <contour>
      <point x="133" y="750" type="line"/>
      <point x="552" y="0" type="line"/>
      <point x="648" y="0" type="line"/>
      <point x="225" y="750" type="line"/>
    </contour>
  </outline>
</glyph>
<glyph name="O" format="2">
  <advance width="796"/>
  <unicode hex="004F"/>
  <outline>
    <contour>
      <point x="398" y="-15" type="curve" smooth="yes"/>
      <point x="598" y="-15"/>
      <point x="740" y="131"/>
      <point x="740" y="375" type="curve" smooth="yes"/>
      <point x="740" y="620"/>
      <point x="598" y="765"/>
      <point x="398" y="765" type="curve" smooth="yes"/>
      <point x="199" y="765"/>
      <point x="56" y="620"/>
      <point x="56" y="375" type="curve" smooth="yes"/>
      <point x="56" y="131"/>
      <point x="199" y="-15"/>
    </contour>
    <contour>
      <point x="398" y="69" type="curve" smooth="yes"/>
      <point x="241" y="69"/>
      <point x="146" y="189"/>
      <point x="146" y="375" type="curve" smooth="yes"/>
      <point x="146" y="561"/>
      <point x="241" y="681"/>
      <point x="398" y="681" type="curve" smooth="yes"/>
      <point x="556" y="681"/>
      <point x="650" y="561"/>
      <point x="650" y="375" type="curve" smooth="yes"/>
      <point x="650" y="189"/>
      <point x="556" y="69"/>
    </contour>
  </outline>
</glyph>
<glyph name="P" format="2">
  <advance width="669"/>
  <unicode hex="0050"/>
  <outline>
    <contour>
      <point x="156" y="306" type="line"/>
      <point x="372" y="306" type="line"/>
      <point x="539" y="306"/>
      <point x="623" y="384"/>
      <point x="623" y="530" type="curve" smooth="yes"/>
      <point x="623" y="665"/>
      <point x="539" y="750"/>
      <point x="372" y="750" type="curve" smooth="yes"/>
      <point x="156" y="750" type="line"/>
      <point x="156" y="669" type="line"/>
      <point x="372" y="669" type="line" smooth="yes"/>
      <point x="488" y="669"/>
      <point x="539" y="626"/>
      <point x="539" y="530" type="curve" smooth="yes"/>
      <point x="539" y="431"/>
      <point x="488" y="387"/>
      <point x="372" y="387" type="curve" smooth="yes"/>
      <point x="156" y="387" type="line"/>
    </contour>
    <contour>
      <point x="90" y="0" type="line"/>
      <point x="174" y="0" type="line"/>
      <point x="174" y="750" type="line"/>
      <point x="90" y="750" type="line"/>
    </contour>
  </outline>
</glyph>
<glyph name="Q" format="2">
  <advance width="809"/>
  <unicode hex="0051"/>
  <outline>
    <contour>
      <point x="398" y="-15" type="curve" smooth="yes"/>
      <point x="582" y="-15"/>
      <point x="740" y="131"/>
      <point x="740" y="375" type="curve" smooth="yes"/>
      <point x="740" y="620"/>
      <point x="597" y="765"/>
      <point x="398" y="765" type="curve" smooth="yes"/>
      <point x="198" y="765"/>
      <point x="56" y="620"/>
      <point x="56" y="375" type="curve" smooth="yes"/>
      <point x="56" y="131"/>
      <point x="198" y="-15"/>
    </contour>
    <contour>
      <point x="662" y="0" type="line"/>
      <point x="777" y="0" type="line"/>
      <point x="498" y="254" type="line"/>
      <point x="383" y="254" type="line"/>
    </contour>
    <contour>
      <point x="398" y="69" type="curve" smooth="yes"/>
      <point x="240" y="69"/>
      <point x="146" y="189"/>
      <point x="146" y="375" type="curve" smooth="yes"/>
      <point x="146" y="561"/>
      <point x="240" y="681"/>
      <point x="398" y="681" type="curve" smooth="yes"/>
      <point x="555" y="681"/>
      <point x="650" y="561"/>
      <point x="650" y="375" type="curve" smooth="yes"/>
      <point x="650" y="174"/>
      <point x="555" y="69"/>
    </contour>
  </outline>
</glyph>
<glyph name="R" format="2">
  <advance width="669"/>
  <unicode hex="0052"/>
  <outline>
    <contour>
      <point x="537" y="0" type="line"/>
      <point x="642" y="0" type="line"/>
      <point x="348" y="343" type="line"/>
      <point x="243" y="343" type="line"/>
    </contour>
    <component base="P"/>
  </outline>
</glyph>
<glyph name="S" format="2">
  <advance width="671"/>
  <unicode hex="0053"/>
  <outline>
    <contour>
      <point x="332" y="-15" type="curve" smooth="yes"/>
      <point x="518" y="-15"/>
      <point x="607" y="71"/>
      <point x="607" y="203" type="curve" smooth="yes"/>
      <point x="607" y="329"/>
      <point x="520" y="390"/>
      <point x="406" y="413" type="curve" smooth="yes"/>
      <point x="310" y="432" type="line" smooth="yes"/>
      <point x="182" y="458"/>
      <point x="149" y="497"/>
      <point x="149" y="557" type="curve" smooth="yes"/>
      <point x="151" y="618"/>
      <point x="193" y="684"/>
      <point x="329" y="684" type="curve" smooth="yes"/>
      <point x="406" y="684"/>
      <point x="478" y="674"/>
      <point x="569" y="615" type="curve"/>
      <point x="569" y="704" type="line"/>
      <point x="515" y="737"/>
      <point x="433" y="765"/>
      <point x="325" y="765" type="curve" smooth="yes"/>
      <point x="158" y="765"/>
      <point x="64" y="674"/>
      <point x="64" y="551" type="curve" smooth="yes"/>
      <point x="64" y="455"/>
      <point x="128" y="383"/>
      <point x="260" y="356" type="curve" smooth="yes"/>
      <point x="358" y="336" type="line" smooth="yes"/>
      <point x="478" y="312"/>
      <point x="521" y="275"/>
      <point x="521" y="203" type="curve" smooth="yes"/>
      <point x="521" y="126"/>
      <point x="478" y="66"/>
      <point x="343" y="66" type="curve" smooth="yes"/>
      <point x="245" y="66"/>
      <point x="157" y="81"/>
      <point x="65" y="140" type="curve"/>
      <point x="65" y="48" type="line"/>
      <point x="119" y="12"/>
      <point x="223" y="-15"/>
    </contour>
  </outline>
</glyph>
<glyph name="T" format="2">
  <advance width="588"/>
  <unicode hex="0054"/>
  <outline>
    <contour>
      <point x="251" y="750" type="line"/>
      <point x="251" y="3" type="line"/>
      <point x="338" y="3" type="line"/>
      <point x="338" y="750" type="line"/>
    </contour>
    <contour>
      <point x="582" y="750" type="line"/>
      <point x="6" y="750" type="line"/>
      <point x="6" y="669" type="line"/>
      <point x="582" y="669" type="line"/>
    </contour>
  </outline>
</glyph>
<glyph name="U" format="2">
  <advance width="738"/>
  <unicode hex="0055"/>
  <outline>
    <contour>
      <point x="371" y="-15" type="curve" smooth="yes"/>
      <point x="554" y="-15"/>
      <point x="666" y="94"/>
      <point x="666" y="286" type="curve" smooth="yes"/>
      <point x="666" y="750" type="line"/>
      <point x="582" y="750" type="line"/>
      <point x="582" y="286" type="line" smooth="yes"/>
      <point x="582" y="138"/>
      <point x="497" y="66"/>
      <point x="371" y="66" type="curve" smooth="yes"/>
      <point x="245" y="66"/>
      <point x="156" y="136"/>
      <point x="156" y="286" type="curve" smooth="yes"/>
      <point x="156" y="750" type="line"/>
      <point x="72" y="750" type="line"/>
      <point x="72" y="286" type="line" smooth="yes"/>
      <point x="72" y="94"/>
      <point x="188" y="-15"/>
    </contour>
  </outline>
</glyph>
<glyph name="V" format="2">
  <advance width="653"/>
  <unicode hex="0056"/>
  <outline>
    <contour>
      <point x="279" y="0" type="line"/>
      <point x="374" y="0" type="line"/>
      <point x="653" y="750" type="line"/>
      <point x="560" y="750" type="line"/>
      <point x="341" y="155" type="line"/>
      <point x="313" y="59" type="line"/>
      <point x="340" y="59" type="line"/>
      <point x="312" y="155" type="line"/>
      <point x="93" y="750" type="line"/>
      <point x="0" y="750" type="line"/>
    </contour>
  </outline>
</glyph>
<glyph name="W" format="2">
  <advance width="952"/>
  <unicode hex="0057"/>
  <outline>
    <contour>
      <point x="714" y="147" type="line"/>
      <point x="698" y="67" type="line"/>
      <point x="708" y="67" type="line"/>
      <point x="690" y="147" type="line"/>
      <point x="535" y="750" type="line"/>
      <point x="453" y="750" type="line"/>
      <point x="648" y="0" type="line"/>
      <point x="761" y="0" type="line"/>
      <point x="932" y="750" type="line"/>
      <point x="851" y="750" type="line"/>
    </contour>
    <contour>
      <point x="262" y="147" type="line"/>
      <point x="245" y="70" type="line"/>
      <point x="253" y="70" type="line"/>
      <point x="238" y="147" type="line"/>
      <point x="101" y="750" type="line"/>
      <point x="20" y="750" type="line"/>
      <point x="191" y="0" type="line"/>
      <point x="305" y="0" type="line"/>
      <point x="499" y="750" type="line"/>
      <point x="418" y="750" type="line"/>
    </contour>
  </outline>
</glyph>
<glyph name="X" format="2">
  <advance width="667"/>
  <unicode hex="0058"/>
  <outline>
    <contour>
      <point x="128" y="750" type="line"/>
      <point x="22" y="750" type="line"/>
      <point x="288" y="350" type="line"/>
      <point x="288" y="401" type="line"/>
      <point x="22" y="0" type="line"/>
      <point x="128" y="0" type="line"/>
      <point x="368" y="377" type="line"/>
    </contour>
    <contour>
      <point x="381" y="351" type="line"/>
      <point x="645" y="750" type="line"/>
      <point x="543" y="750" type="line"/>
      <point x="298" y="377" type="line"/>
      <point x="543" y="0" type="line"/>
      <point x="645" y="0" type="line"/>
      <point x="381" y="399" type="line"/>
    </contour>
  </outline>
</glyph>
<glyph name="Y" format="2">
  <advance width="635"/>
  <unicode hex="0059"/>
  <outline>
    <contour>
      <point x="290" y="377" type="line"/>
      <point x="345" y="377" type="line"/>
      <point x="108" y="750" type="line"/>
      <point x="6" y="750" type="line"/>
      <point x="278" y="341" type="line"/>
      <point x="275" y="357" type="line"/>
      <point x="275" y="0" type="line"/>
      <point x="362" y="0" type="line"/>
      <point x="362" y="357" type="line"/>
      <point x="359" y="342" type="line"/>
      <point x="629" y="750" type="line"/>
      <point x="527" y="750" type="line"/>
    </contour>
  </outline>
</glyph>
<glyph name="Z" format="2">
  <advance width="653"/>
  <unicode hex="005A"/>
  <outline>
    <contour>
      <point x="503" y="696" type="line"/>
      <point x="557" y="669" type="line"/>
      <point x="47" y="669" type="line"/>
      <point x="47" y="750" type="line"/>
      <point x="608" y="750" type="line"/>
      <point x="608" y="713" type="line"/>
      <point x="148" y="56" type="line"/>
      <point x="127" y="83" type="line"/>
      <point x="613" y="81" type="line"/>
      <point x="613" y="0" type="line"/>
      <point x="40" y="0" type="line"/>
      <point x="40" y="41" type="line"/>
    </contour>
  </outline>
</glyph>
<glyph name="bracketleft" format="2">
  <advance width="521"/>
  <unicode hex="005B"/>
  <outline>
    <contour>
      <point x="166" y="750" type="line"/>
      <point x="166" y="-250" type="line"/>
      <point x="250" y="-250" type="line"/>
      <point x="250" y="750" type="line"/>
    </contour>
    <contour>
      <point x="197" y="750" type="line"/>
      <point x="197" y="679" type="line"/>
      <point x="391" y="679" type="line"/>
      <point x="391" y="750" type="line"/>
    </contour>
    <contour>
      <point x="197" y="-179" type="line"/>
      <point x="197" y="-250" type="line"/>
      <point x="391" y="-250" type="line"/>
      <point x="391" y="-179" type="line"/>
    </contour>
  </outline>
</glyph>
<glyph name="backslash" format="2">
  <advance width="558"/>
  <unicode hex="005C"/>
  <outline>
    <contour>
      <point x="182" y="747" type="line"/>
      <point x="100" y="747" type="line"/>
      <point x="376" y="-250" type="line"/>
      <point x="458" y="-250" type="line"/>
    </contour>
  </outline>
</glyph>
<glyph name="underscore" format="2">
  <advance width="704"/>
  <unicode hex="005F"/>
  <outline>
    <contour>
      <point x="650" y="-50" type="line"/>
      <point x="54" y="-50" type="line"/>
      <point x="54" y="-128" type="line"/>
      <point x="650" y="-128" type="line"/>
    </contour>
  </outline>
</glyph>
<glyph name="a" format="2">
  <advance width="638"/>
  <unicode hex="0061"/>
  <outline>
    <contour>
      <point x="558" y="0" type="line"/>
      <point x="558" y="515" type="line"/>
      <point x="477" y="515" type="line"/>
      <point x="477" y="0" type="line"/>
    </contour>
    <contour>
      <point x="522" y="258" type="curve"/>
      <point x="522" y="426"/>
      <point x="436" y="531"/>
      <point x="298" y="531" type="curve" smooth="yes"/>
      <point x="157" y="531"/>
      <point x="56" y="422"/>
      <point x="56" y="258" type="curve"/>
      <point x="56" y="92"/>
      <point x="147" y="-15"/>
      <point x="294" y="-15" type="curve" smooth="yes"/>
      <point x="434" y="-15"/>
      <point x="522" y="90"/>
    </contour>
    <contour>
      <point x="499" y="258" type="curve"/>
      <point x="482" y="135"/>
      <point x="407" y="57"/>
      <point x="303" y="57" type="curve" smooth="yes"/>
      <point x="203" y="57"/>
      <point x="138" y="137"/>
      <point x="138" y="258" type="curve"/>
      <point x="138" y="379"/>
      <point x="205" y="458"/>
      <point x="306" y="458" type="curve" smooth="yes"/>
      <point x="409" y="458"/>
      <point x="483" y="381"/>
    </contour>
  </outline>
</glyph>
<glyph name="b" format="2">
  <advance width="640"/>
  <unicode hex="0062"/>
  <outline>
    <contour>
      <point x="80" y="750" type="line"/>
      <point x="80" y="0" type="line"/>
      <point x="161" y="0" type="line"/>
      <point x="161" y="750" type="line"/>
    </contour>
    <contour>
      <point x="116" y="258" type="curve"/>
      <point x="116" y="116"/>
      <point x="188" y="-15"/>
      <point x="341" y="-15" type="curve" smooth="yes"/>
      <point x="484" y="-15"/>
      <point x="584" y="93"/>
      <point x="584" y="258" type="curve"/>
      <point x="584" y="425"/>
      <point x="492" y="531"/>
      <point x="345" y="531" type="curve" smooth="yes"/>
      <point x="189" y="531"/>
      <point x="116" y="398"/>
    </contour>
    <contour>
      <point x="139" y="258" type="curve"/>
      <point x="157" y="384"/>
      <point x="233" y="456"/>
      <point x="336" y="456" type="curve" smooth="yes"/>
      <point x="436" y="456"/>
      <point x="501" y="380"/>
      <point x="501" y="258" type="curve"/>
      <point x="501" y="137"/>
      <point x="434" y="60"/>
      <point x="333" y="60" type="curve" smooth="yes"/>
      <point x="230" y="60"/>
      <point x="155" y="132"/>
    </contour>
  </outline>
</glyph>
<glyph name="c" format="2">
  <advance width="535"/>
  <unicode hex="0063"/>
  <outline>
    <contour>
      <point x="318" y="458" type="curve" smooth="yes"/>
      <point x="205" y="458"/>
      <point x="140" y="381"/>
      <point x="140" y="266" type="curve" smooth="yes"/>
      <point x="140" y="149"/>
      <point x="196" y="73"/>
      <point x="319" y="73" type="curve"/>
      <point x="386" y="73"/>
      <point x="432" y="82"/>
      <point x="494" y="114" type="curve"/>
      <point x="494" y="40" type="line"/>
      <point x="453" y="17"/>
      <point x="401" y="0"/>
      <point x="319" y="0" type="curve" smooth="yes"/>
      <point x="126" y="0"/>
      <point x="56" y="122"/>
      <point x="56" y="265" type="curve" smooth="yes"/>
      <point x="56" y="409"/>
      <point x="143" y="531"/>
      <point x="321" y="531" type="curve"/>
      <point x="397" y="531"/>
      <point x="449" y="513"/>
      <point x="490" y="489" type="curve"/>
      <point x="490" y="409" type="line"/>
      <point x="421" y="449"/>
      <point x="379" y="458"/>
    </contour>
  </outline>
</glyph>
<glyph name="d" format="2">
  <advance width="640"/>
  <unicode hex="0064"/>
  <outline>
    <contour>
      <point x="560" y="0" type="line"/>
      <point x="560" y="750" type="line"/>
      <point x="479" y="750" type="line"/>
      <point x="479" y="0" type="line"/>
    </contour>
    <contour>
      <point x="524" y="258" type="curve"/>
      <point x="524" y="401"/>
      <point x="452" y="531"/>
      <point x="299" y="531" type="curve" smooth="yes"/>
      <point x="156" y="531"/>
      <point x="56" y="423"/>
      <point x="56" y="258" type="curve"/>
      <point x="56" y="92"/>
      <point x="148" y="-15"/>
      <point x="295" y="-15" type="curve" smooth="yes"/>
      <point x="451" y="-15"/>
      <point x="524" y="119"/>
    </contour>
    <contour>
      <point x="501" y="258" type="curve"/>
      <point x="483" y="132"/>
      <point x="407" y="61"/>
      <point x="304" y="61" type="curve" smooth="yes"/>
      <point x="204" y="61"/>
      <point x="139" y="137"/>
      <point x="139" y="258" type="curve"/>
      <point x="139" y="380"/>
      <point x="206" y="456"/>
      <point x="307" y="456" type="curve" smooth="yes"/>
      <point x="410" y="456"/>
      <point x="485" y="384"/>
    </contour>
  </outline>
</glyph>
<glyph name="e" format="2">
  <advance width="587"/>
  <unicode hex="0065"/>
  <outline>
    <contour>
      <point x="304" y="531" type="curve" smooth="yes"/>
      <point x="149" y="531"/>
      <point x="56" y="407"/>
      <point x="56" y="252" type="curve" smooth="yes"/>
      <point x="56" y="115"/>
      <point x="129" y="-10"/>
      <point x="328" y="-10" type="curve" smooth="yes"/>
      <point x="417" y="-10"/>
      <point x="484" y="13"/>
      <point x="525" y="44" type="curve"/>
      <point x="525" y="120" type="line"/>
      <point x="457" y="76"/>
      <point x="393" y="64"/>
      <point x="334" y="64" type="curve" smooth="yes"/>
      <point x="187" y="64"/>
      <point x="138" y="138"/>
      <point x="138" y="229" type="curve"/>
      <point x="526" y="229" type="line"/>
      <point x="529" y="250"/>
      <point x="531" y="268"/>
      <point x="531" y="290" type="curve" smooth="yes"/>
      <point x="531" y="448"/>
      <point x="428" y="531"/>
    </contour>
    <contour>
      <point x="302" y="456" type="curve" smooth="yes"/>
      <point x="396" y="456"/>
      <point x="449" y="382"/>
      <point x="449" y="300" type="curve"/>
      <point x="141" y="300" type="line"/>
      <point x="148" y="382"/>
      <point x="209" y="456"/>
    </contour>
  </outline>
</glyph>
<glyph name="f" format="2">
  <advance width="374"/>
  <unicode hex="0066"/>
  <outline>
    <contour>
      <point x="125" y="563" type="curve" smooth="yes"/>
      <point x="125" y="0" type="line"/>
      <point x="206" y="0" type="line"/>
      <point x="206" y="575" type="line" smooth="yes"/>
      <point x="206" y="646"/>
      <point x="243" y="690"/>
      <point x="307" y="690" type="curve" smooth="yes"/>
      <point x="339" y="690"/>
      <point x="369" y="684"/>
      <point x="398" y="673" type="curve"/>
      <point x="398" y="751" type="line"/>
      <point x="369" y="760"/>
      <point x="343" y="765"/>
      <point x="301" y="765" type="curve" smooth="yes"/>
      <point x="184" y="765"/>
      <point x="125" y="682"/>
    </contour>
    <contour>
      <point x="35" y="516" type="line"/>
      <point x="35" y="444" type="line"/>
      <point x="347" y="444" type="line"/>
      <point x="347" y="516" type="line"/>
    </contour>
  </outline>
</glyph>
<glyph name="g" format="2">
  <advance width="640"/>
  <unicode hex="0067"/>
  <outline>
    <contour>
      <point x="478" y="30" type="line" smooth="yes"/>
      <point x="478" y="-100"/>
      <point x="424" y="-174"/>
      <point x="289" y="-174" type="curve" smooth="yes"/>
      <point x="219" y="-174"/>
      <point x="162" y="-158"/>
      <point x="95" y="-126" type="curve"/>
      <point x="95" y="-204" type="line"/>
      <point x="141" y="-228"/>
      <point x="205" y="-248"/>
      <point x="289" y="-248" type="curve" smooth="yes"/>
      <point x="496" y="-248"/>
      <point x="560" y="-123"/>
      <point x="560" y="40" type="curve" smooth="yes"/>
      <point x="560" y="516" type="line"/>
      <point x="478" y="516" type="line"/>
    </contour>
    <contour>
      <point x="523" y="258" type="curve" smooth="yes"/>
      <point x="523" y="400"/>
      <point x="452" y="531"/>
      <point x="299" y="531" type="curve" smooth="yes"/>
      <point x="157" y="531"/>
      <point x="56" y="423"/>
      <point x="56" y="258" type="curve" smooth="yes"/>
      <point x="56" y="93"/>
      <point x="148" y="-14"/>
      <point x="295" y="-14" type="curve" smooth="yes"/>
      <point x="450" y="-14"/>
      <point x="523" y="120"/>
    </contour>
    <contour>
      <point x="501" y="258" type="curve"/>
      <point x="483" y="133"/>
      <point x="407" y="60"/>
      <point x="304" y="60" type="curve" smooth="yes"/>
      <point x="205" y="60"/>
      <point x="139" y="138"/>
      <point x="139" y="258" type="curve" smooth="yes"/>
      <point x="139" y="380"/>
      <point x="206" y="456"/>
      <point x="307" y="456" type="curve" smooth="yes"/>
      <point x="410" y="456"/>
      <point x="484" y="385"/>
    </contour>
  </outline>
</glyph>
<glyph name="h" format="2">
  <advance width="609"/>
  <unicode hex="0068"/>
  <outline>
    <contour>
      <point x="80" y="747" type="line"/>
      <point x="80" y="0" type="line"/>
      <point x="161" y="0" type="line"/>
      <point x="161" y="747" type="line"/>
    </contour>
    <contour>
      <point x="545" y="294" type="line" smooth="yes"/>
      <point x="545" y="447"/>
      <point x="474" y="531"/>
      <point x="344" y="531" type="curve" smooth="yes"/>
      <point x="258" y="531"/>
      <point x="177" y="479"/>
      <point x="144" y="417" type="curve"/>
      <point x="144" y="324" type="line"/>
      <point x="167" y="401"/>
      <point x="239" y="459"/>
      <point x="321" y="459" type="curve" smooth="yes"/>
      <point x="411" y="459"/>
      <point x="464" y="408"/>
      <point x="464" y="284" type="curve" smooth="yes"/>
      <point x="464" y="0" type="line"/>
      <point x="545" y="0" type="line"/>
    </contour>
  </outline>
</glyph>
<glyph name="i" format="2">
  <advance width="271"/>
  <unicode hex="0069"/>
  <outline>
    <contour>
      <point x="95" y="516" type="line"/>
      <point x="95" y="0" type="line"/>
      <point x="176" y="0" type="line"/>
      <point x="176" y="516" type="line"/>
    </contour>
    <contour>
      <point x="191" y="695" type="curve" smooth="yes"/>
      <point x="191" y="725"/>
      <point x="165" y="750"/>
      <point x="135" y="750" type="curve" smooth="yes"/>
      <point x="105" y="750"/>
      <point x="80" y="725"/>
      <point x="80" y="695" type="curve" smooth="yes"/>
      <point x="80" y="663"/>
      <point x="105" y="638"/>
      <point x="135" y="638" type="curve" smooth="yes"/>
      <point x="165" y="638"/>
      <point x="191" y="663"/>
    </contour>
  </outline>
</glyph>
<glyph name="j" format="2">
  <advance width="271"/>
  <unicode hex="006A"/>
  <outline>
    <contour>
      <point x="191" y="693" type="curve" smooth="yes"/>
      <point x="191" y="723"/>
      <point x="166" y="749"/>
      <point x="136" y="749" type="curve" smooth="yes"/>
      <point x="106" y="749"/>
      <point x="80" y="723"/>
      <point x="80" y="693" type="curve" smooth="yes"/>
      <point x="80" y="662"/>
      <point x="106" y="636"/>
      <point x="136" y="636" type="curve" smooth="yes"/>
      <point x="166" y="636"/>
      <point x="191" y="662"/>
    </contour>
    <contour>
      <point x="176" y="-69" type="curve"/>
      <point x="176" y="515" type="line"/>
      <point x="95" y="515" type="line"/>
      <point x="95" y="-81" type="line"/>
      <point x="95" y="-151"/>
      <point x="65" y="-175"/>
      <point x="14" y="-175" type="curve"/>
      <point x="-14" y="-175"/>
      <point x="-41" y="-168"/>
      <point x="-67" y="-153" type="curve"/>
      <point x="-67" y="-234" type="line"/>
      <point x="-41" y="-244"/>
      <point x="-16" y="-250"/>
      <point x="22" y="-250" type="curve" smooth="yes"/>
      <point x="125" y="-250"/>
      <point x="176" y="-187"/>
    </contour>
  </outline>
</glyph>
<glyph name="k" format="2">
  <advance width="555"/>
  <unicode hex="006B"/>
  <outline>
    <contour>
      <point x="80" y="750" type="line"/>
      <point x="80" y="0" type="line"/>
      <point x="161" y="0" type="line"/>
      <point x="161" y="750" type="line"/>
    </contour>
    <contour>
      <point x="235" y="308" type="line"/>
      <point x="235" y="254" type="line"/>
      <point x="517" y="516" type="line"/>
      <point x="409" y="516" type="line"/>
      <point x="154" y="278" type="line"/>
      <point x="433" y="0" type="line"/>
      <point x="536" y="0" type="line"/>
    </contour>
  </outline>
</glyph>
<glyph name="l" format="2">
  <advance width="241"/>
  <unicode hex="006C"/>
  <outline>
    <contour>
      <point x="80" y="750" type="line"/>
      <point x="80" y="0" type="line"/>
      <point x="161" y="0" type="line"/>
      <point x="161" y="750" type="line"/>
    </contour>
  </outline>
</glyph>
<glyph name="m" format="2">
  <advance width="951"/>
  <unicode hex="006D"/>
  <outline>
    <contour>
      <point x="80" y="516" type="line"/>
      <point x="80" y="0" type="line"/>
      <point x="161" y="0" type="line"/>
      <point x="161" y="516" type="line"/>
    </contour>
    <contour>
      <point x="524" y="306" type="line" smooth="yes"/>
      <point x="524" y="438"/>
      <point x="463" y="531"/>
      <point x="336" y="531" type="curve" smooth="yes"/>
      <point x="252" y="531"/>
      <point x="177" y="478"/>
      <point x="144" y="417" type="curve"/>
      <point x="144" y="324" type="line"/>
      <point x="167" y="406"/>
      <point x="234" y="459"/>
      <point x="312" y="459" type="curve" smooth="yes"/>
      <point x="395" y="459"/>
      <point x="443" y="408"/>
      <point x="443" y="288" type="curve" smooth="yes"/>
      <point x="443" y="0" type="line"/>
      <point x="524" y="0" type="line"/>
    </contour>
    <contour>
      <point x="887" y="306" type="line" smooth="yes"/>
      <point x="887" y="445"/>
      <point x="819" y="531"/>
      <point x="699" y="531" type="curve" smooth="yes"/>
      <point x="611" y="531"/>
      <point x="543" y="484"/>
      <point x="501" y="429" type="curve"/>
      <point x="506" y="324" type="line"/>
      <point x="530" y="406"/>
      <point x="597" y="459"/>
      <point x="675" y="459" type="curve" smooth="yes"/>
      <point x="758" y="459"/>
      <point x="806" y="408"/>
      <point x="806" y="288" type="curve" smooth="yes"/>
      <point x="806" y="0" type="line"/>
      <point x="887" y="0" type="line"/>
    </contour>
  </outline>
</glyph>
<glyph name="n" format="2">
  <advance width="609"/>
  <unicode hex="006E"/>
  <outline>
    <contour>
      <point x="80" y="516" type="line"/>
      <point x="80" y="0" type="line"/>
      <point x="161" y="0" type="line"/>
      <point x="161" y="516" type="line"/>
    </contour>
    <contour>
      <point x="545" y="294" type="line" smooth="yes"/>
      <point x="545" y="447"/>
      <point x="474" y="531"/>
      <point x="344" y="531" type="curve" smooth="yes"/>
      <point x="258" y="531"/>
      <point x="177" y="478"/>
      <point x="144" y="417" type="curve"/>
      <point x="144" y="324" type="line"/>
      <point x="167" y="400"/>
      <point x="239" y="459"/>
      <point x="321" y="459" type="curve" smooth="yes"/>
      <point x="411" y="459"/>
      <point x="464" y="408"/>
      <point x="464" y="283" type="curve" smooth="yes"/>
      <point x="464" y="0" type="line"/>
      <point x="545" y="0" type="line"/>
    </contour>
  </outline>
</glyph>
<glyph name="o" format="2">
  <advance width="634"/>
  <unicode hex="006F"/>
  <outline>
    <contour>
      <point x="578" y="258" type="curve" smooth="yes"/>
      <point x="578" y="420"/>
      <point x="472" y="531"/>
      <point x="319" y="531" type="curve" smooth="yes"/>
      <point x="166" y="531"/>
      <point x="56" y="420"/>
      <point x="56" y="258" type="curve" smooth="yes"/>
      <point x="56" y="96"/>
      <point x="166" y="-15"/>
      <point x="319" y="-15" type="curve" smooth="yes"/>
      <point x="472" y="-15"/>
      <point x="578" y="96"/>
    </contour>
    <contour>
      <point x="496" y="258" type="curve" smooth="yes"/>
      <point x="496" y="137"/>
      <point x="425" y="62"/>
      <point x="319" y="62" type="curve" smooth="yes"/>
      <point x="211" y="62"/>
      <point x="139" y="137"/>
      <point x="139" y="258" type="curve" smooth="yes"/>
      <point x="139" y="380"/>
      <point x="211" y="455"/>
      <point x="319" y="455" type="curve" smooth="yes"/>
      <point x="425" y="455"/>
      <point x="496" y="380"/>
    </contour>
  </outline>
</glyph>
<glyph name="r" format="2">
  <advance width="407"/>
  <unicode hex="0072"/>
  <outline>
    <contour>
      <point x="80" y="516" type="line"/>
      <point x="80" y="0" type="line"/>
      <point x="161" y="0" type="line"/>
      <point x="161" y="516" type="line"/>
    </contour>
    <contour>
      <point x="375" y="531" type="line"/>
      <point x="287" y="531"/>
      <point x="188" y="501"/>
      <point x="144" y="417" type="curve"/>
      <point x="144" y="340" type="line"/>
      <point x="173" y="420"/>
      <point x="242" y="450"/>
      <point x="375" y="450" type="curve"/>
    </contour>
  </outline>
</glyph>
<glyph name="s" format="2">
  <advance width="508"/>
  <unicode hex="0073"/>
  <outline>
    <contour>
      <point x="130" y="384" type="curve" smooth="yes"/>
      <point x="130" y="339"/>
      <point x="158" y="320"/>
      <point x="242" y="305" type="curve" smooth="yes"/>
      <point x="316" y="291" type="line" smooth="yes"/>
      <point x="403" y="275"/>
      <point x="464" y="227"/>
      <point x="464" y="138" type="curve" smooth="yes"/>
      <point x="464" y="45"/>
      <point x="397" y="-15"/>
      <point x="253" y="-15" type="curve" smooth="yes"/>
      <point x="167" y="-15"/>
      <point x="88" y="5"/>
      <point x="46" y="29" type="curve"/>
      <point x="46" y="111" type="line"/>
      <point x="116" y="71"/>
      <point x="185" y="60"/>
      <point x="256" y="60" type="curve" smooth="yes"/>
      <point x="338" y="60"/>
      <point x="383" y="84"/>
      <point x="383" y="138" type="curve" smooth="yes"/>
      <point x="383" y="189"/>
      <point x="343" y="213"/>
      <point x="265" y="225" type="curve" smooth="yes"/>
      <point x="190" y="237" type="line" smooth="yes"/>
      <point x="88" y="254"/>
      <point x="44" y="311"/>
      <point x="44" y="378" type="curve" smooth="yes"/>
      <point x="44" y="465"/>
      <point x="118" y="531"/>
      <point x="256" y="531" type="curve" smooth="yes"/>
      <point x="334" y="531"/>
      <point x="394" y="512"/>
      <point x="436" y="488" type="curve"/>
      <point x="436" y="405" type="line"/>
      <point x="365" y="446"/>
      <point x="316" y="456"/>
      <point x="253" y="456" type="curve" smooth="yes"/>
      <point x="167" y="456"/>
      <point x="131" y="426"/>
    </contour>
  </outline>
</glyph>
<glyph name="t" format="2">
  <advance width="390"/>
  <unicode hex="0074"/>
  <outline>
    <contour>
      <point x="109" y="149" type="curve" smooth="yes"/>
      <point x="109" y="644" type="line"/>
      <point x="190" y="644" type="line"/>
      <point x="190" y="167" type="line" smooth="yes"/>
      <point x="190" y="80"/>
      <point x="220" y="59"/>
      <point x="271" y="59" type="curve" smooth="yes"/>
      <point x="300" y="59"/>
      <point x="327" y="65"/>
      <point x="352" y="76" type="curve"/>
      <point x="352" y="-2" type="line"/>
      <point x="327" y="-11"/>
      <point x="303" y="-16"/>
      <point x="265" y="-16" type="curve" smooth="yes"/>
      <point x="162" y="-16"/>
      <point x="109" y="44"/>
    </contour>
    <contour>
      <point x="34" y="443" type="line"/>
      <point x="34" y="515" type="line"/>
      <point x="331" y="515" type="line"/>
      <point x="331" y="443" type="line"/>
    </contour>
  </outline>
</glyph>
<glyph name="v" format="2">
  <advance width="529"/>
  <unicode hex="0076"/>
  <outline>
    <contour>
      <point x="433" y="516" type="line"/>
      <point x="225" y="0" type="line"/>
      <point x="304" y="0" type="line"/>
      <point x="517" y="516" type="line"/>
    </contour>
    <contour>
      <point x="96" y="516" type="line"/>
      <point x="12" y="516" type="line"/>
      <point x="210" y="0" type="line"/>
      <point x="289" y="0" type="line"/>
    </contour>
  </outline>
</glyph>
<glyph name="w" format="2">
  <advance width="773"/>
  <unicode hex="0077"/>
  <outline>
    <contour>
      <point x="423" y="516" type="line"/>
      <point x="350" y="516" type="line"/>
      <point x="205" y="58" type="line"/>
      <point x="234" y="58" type="line"/>
      <point x="102" y="516" type="line"/>
      <point x="18" y="516" type="line"/>
      <point x="171" y="0" type="line"/>
      <point x="257" y="0" type="line"/>
      <point x="403" y="448" type="line"/>
      <point x="370" y="448" type="line"/>
      <point x="516" y="0" type="line"/>
      <point x="602" y="0" type="line"/>
      <point x="755" y="516" type="line"/>
      <point x="671" y="516" type="line"/>
      <point x="539" y="58" type="line"/>
      <point x="568" y="58" type="line"/>
    </contour>
  </outline>
</glyph>
<glyph name="x" format="2">
  <advance width="516"/>
  <unicode hex="0078"/>
  <outline>
    <contour>
      <point x="114" y="516" type="line"/>
      <point x="18" y="516" type="line"/>
      <point x="216" y="240" type="line"/>
      <point x="216" y="276" type="line"/>
      <point x="18" y="0" type="line"/>
      <point x="114" y="0" type="line"/>
      <point x="288" y="260" type="line"/>
    </contour>
    <contour>
      <point x="302" y="242" type="line"/>
      <point x="498" y="516" type="line"/>
      <point x="402" y="516" type="line"/>
      <point x="225" y="260" type="line"/>
      <point x="402" y="0" type="line"/>
      <point x="498" y="0" type="line"/>
      <point x="302" y="275" type="line"/>
    </contour>
  </outline>
</glyph>
<glyph name="y" format="2">
  <advance width="609"/>
  <unicode hex="0079"/>
  <outline>
    <contour>
      <point x="448" y="30" type="line"/>
      <point x="448" y="-101"/>
      <point x="403" y="-174"/>
      <point x="266" y="-174" type="curve"/>
      <point x="197" y="-174"/>
      <point x="136" y="-158"/>
      <point x="70" y="-126" type="curve"/>
      <point x="70" y="-206" type="line"/>
      <point x="115" y="-228"/>
      <point x="182" y="-249"/>
      <point x="266" y="-249" type="curve" smooth="yes"/>
      <point x="475" y="-249"/>
      <point x="529" y="-125"/>
      <point x="529" y="40" type="curve"/>
      <point x="529" y="516" type="line"/>
      <point x="448" y="516" type="line"/>
    </contour>
    <contour>
      <point x="470" y="258" type="line"/>
      <point x="451" y="132"/>
      <point x="376" y="60"/>
      <point x="272" y="60" type="curve" smooth="yes"/>
      <point x="173" y="60"/>
      <point x="145" y="127"/>
      <point x="145" y="238" type="curve"/>
      <point x="145" y="516" type="line"/>
      <point x="64" y="516" type="line"/>
      <point x="64" y="228" type="line"/>
      <point x="64" y="78"/>
      <point x="118" y="-15"/>
      <point x="263" y="-15" type="curve" smooth="yes"/>
      <point x="419" y="-15"/>
      <point x="493" y="118"/>
      <point x="493" y="258" type="curve"/>
    </contour>
  </outline>
</glyph>
<glyph name="z" format="2">
  <advance width="530"/>
  <unicode hex="007A"/>
  <outline>
    <contour>
      <point x="379" y="476" type="line"/>
      <point x="423" y="444" type="line"/>
      <point x="48" y="444" type="line"/>
      <point x="48" y="516" type="line"/>
      <point x="474" y="516" type="line"/>
      <point x="474" y="480" type="line"/>
      <point x="138" y="42" type="line"/>
      <point x="127" y="74" type="line"/>
      <point x="478" y="72" type="line"/>
      <point x="478" y="0" type="line"/>
      <point x="40" y="0" type="line"/>
      <point x="40" y="39" type="line"/>
    </contour>
  </outline>
</glyph>
<glyph name="braceleft" format="2">
  <advance width="521"/>
  <unicode hex="007B"/>
  <outline>
    <contour>
      <point x="109" y="252" type="curve"/>
      <point x="109" y="248" type="line"/>
      <point x="179" y="189"/>
      <point x="213" y="115"/>
      <point x="220" y="3" type="curve" smooth="yes"/>
      <point x="227" y="-116"/>
      <point x="260" y="-193"/>
      <point x="327" y="-250" type="curve"/>
      <point x="417" y="-250" type="line"/>
      <point x="417" y="-246" type="line"/>
      <point x="335" y="-182"/>
      <point x="314" y="-119"/>
      <point x="304" y="9" type="curve" smooth="yes"/>
      <point x="294" y="125"/>
      <point x="267" y="192"/>
      <point x="206" y="250" type="curve"/>
      <point x="267" y="308"/>
      <point x="294" y="375"/>
      <point x="304" y="491" type="curve" smooth="yes"/>
      <point x="314" y="619"/>
      <point x="335" y="682"/>
      <point x="417" y="746" type="curve"/>
      <point x="417" y="750" type="line"/>
      <point x="327" y="750" type="line"/>
      <point x="259" y="692"/>
      <point x="227" y="615"/>
      <point x="220" y="497" type="curve" smooth="yes"/>
      <point x="213" y="385"/>
      <point x="179" y="311"/>
    </contour>
  </outline>
</glyph>
<glyph name="bar" format="2">
  <advance width="416"/>
  <unicode hex="007C"/>
  <outline>
    <contour>
      <point x="166" y="750" type="line"/>
      <point x="166" y="-250" type="line"/>
      <point x="250" y="-250" type="line"/>
      <point x="250" y="750" type="line"/>
    </contour>
  </outline>
</glyph>
<glyph name="cent" format="2">
  <advance width="535"/>
  <unicode hex="00A2"/>
  <outline>
    <contour>
      <point x="255" y="-70" type="line"/>
      <point x="255" y="590" type="line"/>
      <point x="339" y="590" type="line"/>
      <point x="339" y="-70" type="line"/>
    </contour>
    <component base="c"/>
  </outline>
</glyph>
<glyph name="sterling" format="2">
  <advance width="677"/>
  <unicode hex="00A3"/>
  <outline>
    <contour>
      <point x="289" y="239" type="curve" smooth="yes"/>
      <point x="289" y="288"/>
      <point x="272" y="331"/>
      <point x="255" y="376" type="curve" smooth="yes"/>
      <point x="238" y="421"/>
      <point x="221" y="467"/>
      <point x="221" y="520" type="curve" smooth="yes"/>
      <point x="221" y="623"/>
      <point x="285" y="685"/>
      <point x="394" y="685" type="curve" smooth="yes"/>
      <point x="438" y="685"/>
      <point x="504" y="674"/>
      <point x="581" y="615" type="curve"/>
      <point x="581" y="704" type="line"/>
      <point x="535" y="737"/>
      <point x="466" y="765"/>
      <point x="386" y="765" type="curve" smooth="yes"/>
      <point x="230" y="765"/>
      <point x="136" y="674"/>
      <point x="136" y="527" type="curve" smooth="yes"/>
      <point x="136" y="462"/>
      <point x="155" y="414"/>
      <point x="172" y="368" type="curve" smooth="yes"/>
      <point x="189" y="327"/>
      <point x="204" y="287"/>
      <point x="204" y="238" type="curve" smooth="yes"/>
      <point x="204" y="130"/>
      <point x="130" y="89"/>
      <point x="89" y="73" type="curve"/>
      <point x="89" y="0" type="line"/>
      <point x="608" y="0" type="line"/>
      <point x="608" y="81" type="line"/>
      <point x="147" y="81" type="line"/>
      <point x="167" y="64" type="line"/>
      <point x="220" y="85"/>
      <point x="289" y="138"/>
    </contour>
    <contour>
      <point x="85" y="332" type="line"/>
      <point x="494" y="332" type="line"/>
      <point x="494" y="413" type="line"/>
      <point x="85" y="413" type="line"/>
    </contour>
  </outline>
</glyph>
<glyph name="currency" format="2">
  <advance width="600"/>
  <unicode hex="00A4"/>
  <outline>
    <contour>
      <point x="300" y="61" type="curve" smooth="yes"/>
      <point x="414" y="61"/>
      <point x="505" y="152"/>
      <point x="505" y="266" type="curve" smooth="yes"/>
      <point x="505" y="380"/>
      <point x="414" y="471"/>
      <point x="300" y="471" type="curve" smooth="yes"/>
      <point x="186" y="471"/>
      <point x="95" y="380"/>
      <point x="95" y="266" type="curve" smooth="yes"/>
      <point x="95" y="152"/>
      <point x="186" y="61"/>
    </contour>
    <contour>
      <point x="300" y="131" type="curve" smooth="yes"/>
      <point x="225" y="131"/>
      <point x="165" y="191"/>
      <point x="165" y="266" type="curve" smooth="yes"/>
      <point x="165" y="341"/>
      <point x="225" y="401"/>
      <point x="300" y="401" type="curve" smooth="yes"/>
      <point x="375" y="401"/>
      <point x="435" y="341"/>
      <point x="435" y="266" type="curve" smooth="yes"/>
      <point x="435" y="191"/>
      <point x="375" y="131"/>
    </contour>
    <contour>
      <point x="149" y="401" type="line"/>
      <point x="233" y="401" type="line"/>
      <point x="144" y="516" type="line"/>
      <point x="60" y="516" type="line"/>
    </contour>
    <contour>
      <point x="370" y="400" type="line"/>
      <point x="454" y="400" type="line"/>
      <point x="544" y="516" type="line"/>
      <point x="460" y="516" type="line"/>
    </contour>
    <contour>
      <point x="241" y="124" type="line"/>
      <point x="157" y="124" type="line"/>
      <point x="60" y="-1" type="line"/>
      <point x="144" y="-1" type="line"/>
    </contour>
    <contour>
      <point x="446" y="126" type="line"/>
      <point x="363" y="126" type="line"/>
      <point x="461" y="-1" type="line"/>
      <point x="544" y="-1" type="line"/>
    </contour>
  </outline>
</glyph>
<glyph name="yen" format="2">
  <advance width="677"/>
  <unicode hex="00A5"/>
  <outline>
    <contour>
      <point x="311" y="377" type="line"/>
      <point x="366" y="377" type="line"/>
      <point x="149" y="750" type="line"/>
      <point x="47" y="750" type="line"/>
      <point x="299" y="341" type="line"/>
      <point x="296" y="357" type="line"/>
      <point x="296" y="0" type="line"/>
      <point x="383" y="0" type="line"/>
      <point x="383" y="357" type="line"/>
      <point x="380" y="342" type="line"/>
      <point x="630" y="750" type="line"/>
      <point x="528" y="750" type="line"/>
    </contour>
    <contour>
      <point x="97" y="339" type="line"/>
      <point x="580" y="339" type="line"/>
      <point x="580" y="411" type="line"/>
      <point x="97" y="411" type="line"/>
    </contour>
    <contour>
      <point x="97" y="180" type="line"/>
      <point x="580" y="180" type="line"/>
      <point x="580" y="252" type="line"/>
      <point x="97" y="252" type="line"/>
    </contour>
  </outline>
</glyph>
<glyph name="brokenbar" format="2">
  <advance width="416"/>
  <unicode hex="00A6"/>
  <outline>
    <contour>
      <point x="166" y="375" type="line"/>
      <point x="250" y="375" type="line"/>
      <point x="250" y="750" type="line"/>
      <point x="166" y="750" type="line"/>
    </contour>
    <contour>
      <point x="250" y="125" type="line"/>
      <point x="166" y="125" type="line"/>
      <point x="166" y="-250" type="line"/>
      <point x="250" y="-250" type="line"/>
    </contour>
  </outline>
</glyph>
<glyph name="section" format="2">
  <advance width="683"/>
  <unicode hex="00A7"/>
  <outline>
    <contour>
      <point x="501" y="180" type="curve"/>
      <point x="501" y="143" type="line"/>
      <point x="580" y="143"/>
      <point x="619" y="201"/>
      <point x="619" y="268" type="curve" smooth="yes"/>
      <point x="619" y="369"/>
      <point x="532" y="428"/>
      <point x="418" y="441" type="curve" smooth="yes"/>
      <point x="322" y="452" type="line" smooth="yes"/>
      <point x="194" y="467"/>
      <point x="161" y="510"/>
      <point x="162" y="565" type="curve" smooth="yes"/>
      <point x="163" y="621"/>
      <point x="199" y="684"/>
      <point x="351" y="684" type="curve" smooth="yes"/>
      <point x="412" y="684"/>
      <point x="490" y="674"/>
      <point x="581" y="615" type="curve"/>
      <point x="581" y="704" type="line"/>
      <point x="527" y="737"/>
      <point x="445" y="765"/>
      <point x="346" y="765" type="curve" smooth="yes"/>
      <point x="170" y="765"/>
      <point x="76" y="677"/>
      <point x="76" y="563" type="curve" smooth="yes"/>
      <point x="76" y="468"/>
      <point x="140" y="392"/>
      <point x="272" y="376" type="curve" smooth="yes"/>
      <point x="370" y="364" type="line" smooth="yes"/>
      <point x="490" y="349"/>
      <point x="533" y="305"/>
      <point x="533" y="246" type="curve" smooth="yes"/>
      <point x="533" y="218"/>
      <point x="523" y="197"/>
    </contour>
    <contour>
      <point x="64" y="333" type="curve" smooth="yes"/>
      <point x="64" y="250"/>
      <point x="129" y="174"/>
      <point x="260" y="158" type="curve" smooth="yes"/>
      <point x="358" y="146" type="line" smooth="yes"/>
      <point x="478" y="131"/>
      <point x="521" y="93"/>
      <point x="521" y="28" type="curve" smooth="yes"/>
      <point x="521" y="-36"/>
      <point x="479" y="-88"/>
      <point x="325" y="-88" type="curve" smooth="yes"/>
      <point x="246" y="-88"/>
      <point x="157" y="-73"/>
      <point x="65" y="-14" type="curve"/>
      <point x="65" y="-106" type="line"/>
      <point x="119" y="-142"/>
      <point x="223" y="-169"/>
      <point x="332" y="-169" type="curve" smooth="yes"/>
      <point x="518" y="-169"/>
      <point x="607" y="-91"/>
      <point x="607" y="28" type="curve" smooth="yes"/>
      <point x="607" y="146"/>
      <point x="520" y="210"/>
      <point x="406" y="223" type="curve" smooth="yes"/>
      <point x="310" y="234" type="line" smooth="yes"/>
      <point x="183" y="249"/>
      <point x="150" y="297"/>
      <point x="150" y="348" type="curve" smooth="yes"/>
      <point x="150" y="381"/>
      <point x="164" y="402"/>
      <point x="182" y="414" type="curve"/>
      <point x="182" y="451" type="line"/>
      <point x="103" y="453"/>
      <point x="64" y="397"/>
    </contour>
  </outline>
</glyph>
<glyph name="copyright" format="2">
  <advance width="524"/>
  <unicode hex="00A9"/>
  <outline>
    <contour>
      <point x="265" y="640" type="curve" smooth="yes"/>
      <point x="236" y="640"/>
      <point x="219" y="619"/>
      <point x="219" y="587" type="curve" smooth="yes"/>
      <point x="219" y="555"/>
      <point x="234" y="534"/>
      <point x="266" y="534" type="curve" smooth="yes"/>
      <point x="289" y="534"/>
      <point x="305" y="537"/>
      <point x="326" y="548" type="curve"/>
      <point x="326" y="508" type="line"/>
      <point x="312" y="499"/>
      <point x="294" y="493"/>
      <point x="266" y="493" type="curve" smooth="yes"/>
      <point x="198" y="493"/>
      <point x="174" y="536"/>
      <point x="174" y="586" type="curve" smooth="yes"/>
      <point x="174" y="637"/>
      <point x="204" y="680"/>
      <point x="266" y="680" type="curve" smooth="yes"/>
      <point x="293" y="680"/>
      <point x="311" y="674"/>
      <point x="325" y="665" type="curve"/>
      <point x="325" y="623" type="line"/>
      <point x="301" y="637"/>
      <point x="286" y="640"/>
    </contour>
    <contour>
      <point x="262" y="401" type="curve" smooth="yes"/>
      <point x="369" y="401"/>
      <point x="444" y="476"/>
      <point x="444" y="583" type="curve" smooth="yes"/>
      <point x="444" y="690"/>
      <point x="369" y="765"/>
      <point x="262" y="765" type="curve" smooth="yes"/>
      <point x="155" y="765"/>
      <point x="80" y="690"/>
      <point x="80" y="583" type="curve" smooth="yes"/>
      <point x="80" y="476"/>
      <point x="155" y="401"/>
    </contour>
    <contour>
      <point x="262" y="439" type="curve" smooth="yes"/>
      <point x="177" y="439"/>
      <point x="118" y="498"/>
      <point x="118" y="583" type="curve" smooth="yes"/>
      <point x="118" y="668"/>
      <point x="177" y="727"/>
      <point x="262" y="727" type="curve" smooth="yes"/>
      <point x="347" y="727"/>
      <point x="406" y="668"/>
      <point x="406" y="583" type="curve" smooth="yes"/>
      <point x="406" y="498"/>
      <point x="347" y="439"/>
    </contour>
  </outline>
</glyph>
<glyph name="registered" format="2">
  <advance width="524"/>
  <unicode hex="00AE"/>
  <outline>
    <contour>
      <point x="262" y="401" type="curve" smooth="yes"/>
      <point x="369" y="401"/>
      <point x="444" y="476"/>
      <point x="444" y="583" type="curve" smooth="yes"/>
      <point x="444" y="690"/>
      <point x="369" y="765"/>
      <point x="262" y="765" type="curve" smooth="yes"/>
      <point x="155" y="765"/>
      <point x="80" y="690"/>
      <point x="80" y="583" type="curve" smooth="yes"/>
      <point x="80" y="476"/>
      <point x="155" y="401"/>
    </contour>
    <contour>
      <point x="262" y="439" type="curve" smooth="yes"/>
      <point x="177" y="439"/>
      <point x="118" y="498"/>
      <point x="118" y="583" type="curve" smooth="yes"/>
      <point x="118" y="668"/>
      <point x="177" y="727"/>
      <point x="262" y="727" type="curve" smooth="yes"/>
      <point x="347" y="727"/>
      <point x="406" y="668"/>
      <point x="406" y="583" type="curve" smooth="yes"/>
      <point x="406" y="498"/>
      <point x="347" y="439"/>
    </contour>
    <contour>
      <point x="293" y="500" type="line"/>
      <point x="335" y="500" type="line"/>
      <point x="268" y="578" type="line"/>
      <point x="226" y="578" type="line"/>
    </contour>
    <contour>
      <point x="216" y="570" type="line"/>
      <point x="266" y="570" type="line"/>
      <point x="303" y="570"/>
      <point x="323" y="588"/>
      <point x="323" y="621" type="curve" smooth="yes"/>
      <point x="323" y="653"/>
      <point x="303" y="671"/>
      <point x="266" y="671" type="curve" smooth="yes"/>
      <point x="216" y="671" type="line"/>
      <point x="216" y="641" type="line"/>
      <point x="262" y="641" type="line" smooth="yes"/>
      <point x="279" y="641"/>
      <point x="287" y="635"/>
      <point x="287" y="621" type="curve" smooth="yes"/>
      <point x="287" y="606"/>
      <point x="279" y="600"/>
      <point x="262" y="600" type="curve" smooth="yes"/>
      <point x="216" y="600" type="line"/>
    </contour>
    <contour>
      <point x="198" y="500" type="line"/>
      <point x="233" y="500" type="line"/>
      <point x="233" y="671" type="line"/>
      <point x="198" y="671" type="line"/>
    </contour>
  </outline>
</glyph>
<glyph name="degree" format="2">
  <advance width="578"/>
  <unicode hex="00B0"/>
  <outline>
    <contour>
      <point x="289" y="487" type="curve" smooth="yes"/>
      <point x="362" y="487"/>
      <point x="418" y="543"/>
      <point x="418" y="616" type="curve" smooth="yes"/>
      <point x="418" y="689"/>
      <point x="362" y="745"/>
      <point x="289" y="745" type="curve" smooth="yes"/>
      <point x="216" y="745"/>
      <point x="160" y="689"/>
      <point x="160" y="616" type="curve" smooth="yes"/>
      <point x="160" y="543"/>
      <point x="216" y="487"/>
    </contour>
    <contour>
      <point x="289" y="539" type="curve" smooth="yes"/>
      <point x="246" y="539"/>
      <point x="212" y="573"/>
      <point x="212" y="616" type="curve" smooth="yes"/>
      <point x="212" y="659"/>
      <point x="246" y="693"/>
      <point x="289" y="693" type="curve" smooth="yes"/>
      <point x="332" y="693"/>
      <point x="366" y="659"/>
      <point x="366" y="616" type="curve" smooth="yes"/>
      <point x="366" y="573"/>
      <point x="332" y="539"/>
    </contour>
  </outline>
</glyph>
<glyph name="paragraph" format="2">
  <advance width="583"/>
  <unicode hex="00B6"/>
  <outline>
    <contour>
      <point x="221" y="354" type="curve" smooth="yes"/>
      <point x="318" y="354" type="line"/>
      <point x="318" y="750" type="line"/>
      <point x="224" y="750" type="line" smooth="yes"/>
      <point x="123" y="750"/>
      <point x="56" y="673"/>
      <point x="56" y="552" type="curve" smooth="yes"/>
      <point x="56" y="430"/>
      <point x="121" y="354"/>
    </contour>
    <contour>
      <point x="281" y="0" type="line"/>
      <point x="355" y="0" type="line"/>
      <point x="355" y="750" type="line"/>
      <point x="281" y="750" type="line"/>
    </contour>
    <contour>
      <point x="429" y="0" type="line"/>
      <point x="503" y="0" type="line"/>
      <point x="503" y="750" type="line"/>
      <point x="429" y="750" type="line"/>
    </contour>
  </outline>
</glyph>
<glyph name="baht" format="2">
  <advance width="679"/>
  <unicode hex="0E3F"/>
  <outline>
    <contour>
      <point x="271" y="800" type="line"/>
      <point x="271" y="-60" type="line"/>
      <point x="355" y="-60" type="line"/>
      <point x="355" y="800" type="line"/>
    </contour>
    <component base="B"/>
  </outline>
</glyph>
<glyph name="endash" format="2">
  <advance width="596"/>
  <unicode hex="2013"/>
  <outline>
    <contour>
      <point x="596" y="410" type="line"/>
      <point x="0" y="410" type="line"/>
      <point x="0" y="332" type="line"/>
      <point x="596" y="332" type="line"/>
    </contour>
  </outline>
</glyph>
<glyph name="dagger" format="2">
  <advance width="450"/>
  <unicode hex="2020"/>
  <outline>
    <contour>
      <point x="184" y="245" type="line"/>
      <point x="264" y="245" type="line"/>
      <point x="264" y="750" type="line"/>
      <point x="184" y="750" type="line"/>
    </contour>
    <contour>
      <point x="50" y="596" type="line"/>
      <point x="50" y="516" type="line"/>
      <point x="400" y="516" type="line"/>
      <point x="400" y="596" type="line"/>
    </contour>
  </outline>
</glyph>
<glyph name="daggerdbl" format="2">
  <advance width="450"/>
  <unicode hex="2021"/>
  <outline>
    <contour>
      <point x="184" y="245" type="line"/>
      <point x="264" y="245" type="line"/>
      <point x="264" y="750" type="line"/>
      <point x="184" y="750" type="line"/>
    </contour>
    <contour>
      <point x="50" y="618" type="line"/>
      <point x="50" y="546" type="line"/>
      <point x="400" y="546" type="line"/>
      <point x="400" y="618" type="line"/>
    </contour>
    <contour>
      <point x="50" y="449" type="line"/>
      <point x="50" y="377" type="line"/>
      <point x="400" y="377" type="line"/>
      <point x="400" y="449" type="line"/>
    </contour>
  </outline>
</glyph>
<glyph name="bullet" format="2">
  <advance width="513"/>
  <unicode hex="2022"/>
  <outline>
    <contour>
      <point x="257" y="168" type="curve" smooth="yes"/>
      <point x="318" y="168"/>
      <point x="367" y="216"/>
      <point x="367" y="279" type="curve" smooth="yes"/>
      <point x="367" y="339"/>
      <point x="318" y="388"/>
      <point x="257" y="388" type="curve" smooth="yes"/>
      <point x="195" y="388"/>
      <point x="146" y="339"/>
      <point x="146" y="279" type="curve" smooth="yes"/>
      <point x="146" y="216"/>
      <point x="195" y="168"/>
    </contour>
  </outline>
</glyph>
<glyph name="guilsinglleft" format="2">
  <advance width="571"/>
  <unicode hex="2039"/>
  <outline>
    <contour>
      <point x="100" y="258" type="line"/>
      <point x="343" y="0" type="line"/>
      <point x="451" y="0" type="line"/>
      <point x="201" y="262" type="line"/>
      <point x="201" y="254" type="line"/>
      <point x="451" y="516" type="line"/>
      <point x="343" y="516" type="line"/>
    </contour>
  </outline>
</glyph>
<glyph name="won" format="2">
  <advance width="842"/>
  <unicode hex="20A9"/>
  <outline>
    <contour>
      <point x="29" y="750" type="line"/>
      <point x="179" y="0" type="line"/>
      <point x="253" y="0" type="line"/>
      <point x="113" y="750" type="line"/>
    </contour>
    <contour>
      <point x="442" y="750" type="line"/>
      <point x="364" y="750" type="line"/>
      <point x="219" y="0" type="line"/>
      <point x="290" y="0" type="line"/>
    </contour>
    <contour>
      <point x="813" y="750" type="line"/>
      <point x="728" y="750" type="line"/>
      <point x="586" y="0" type="line"/>
      <point x="661" y="0" type="line"/>
    </contour>
    <contour>
      <point x="400" y="750" type="line"/>
      <point x="551" y="0" type="line"/>
      <point x="621" y="0" type="line"/>
      <point x="478" y="750" type="line"/>
    </contour>
    <contour>
      <point x="24" y="349" type="line"/>
      <point x="818" y="349" type="line"/>
      <point x="818" y="421" type="line"/>
      <point x="24" y="421" type="line"/>
    </contour>
  </outline>
</glyph>
<glyph name="sheqel" format="2">
  <advance width="868"/>
  <unicode hex="20AA"/>
  <outline>
    <contour>
      <point x="580" y="530" type="line" smooth="yes"/>
      <point x="580" y="665"/>
      <point x="496" y="750"/>
      <point x="329" y="750" type="curve" smooth="yes"/>
      <point x="156" y="750" type="line"/>
      <point x="156" y="669" type="line"/>
      <point x="329" y="669" type="line" smooth="yes"/>
      <point x="445" y="669"/>
      <point x="496" y="626"/>
      <point x="496" y="530" type="curve" smooth="yes"/>
      <point x="496" y="190" type="line"/>
      <point x="580" y="190" type="line"/>
    </contour>
    <contour>
      <point x="90" y="0" type="line"/>
      <point x="174" y="0" type="line"/>
      <point x="174" y="750" type="line"/>
      <point x="90" y="750" type="line"/>
    </contour>
    <contour>
      <point x="288" y="221" type="line" smooth="yes"/>
      <point x="288" y="86"/>
      <point x="372" y="1"/>
      <point x="539" y="1" type="curve" smooth="yes"/>
      <point x="712" y="1" type="line"/>
      <point x="712" y="82" type="line"/>
      <point x="539" y="82" type="line" smooth="yes"/>
      <point x="423" y="82"/>
      <point x="372" y="125"/>
      <point x="372" y="221" type="curve" smooth="yes"/>
      <point x="372" y="561" type="line"/>
      <point x="288" y="561" type="line"/>
    </contour>
    <contour>
      <point x="778" y="751" type="line"/>
      <point x="694" y="751" type="line"/>
      <point x="694" y="1" type="line"/>
      <point x="778" y="1" type="line"/>
    </contour>
  </outline>
</glyph>
<glyph name="euro" format="2">
  <advance width="683"/>
  <unicode hex="20AC"/>
  <outline>
    <contour>
      <point x="56" y="404" type="line"/>
      <point x="56" y="482" type="line"/>
      <point x="462" y="482" type="line"/>
      <point x="462" y="404" type="line"/>
    </contour>
    <contour>
      <point x="56" y="254" type="line"/>
      <point x="56" y="332" type="line"/>
      <point x="462" y="332" type="line"/>
      <point x="462" y="254" type="line"/>
    </contour>
    <contour>
      <point x="642" y="44" type="line"/>
      <point x="598" y="6"/>
      <point x="525" y="-15"/>
      <point x="440" y="-15" type="curve" smooth="yes"/>
      <point x="224" y="-15"/>
      <point x="106" y="122"/>
      <point x="106" y="375" type="curve" smooth="yes"/>
      <point x="106" y="635"/>
      <point x="241" y="765"/>
      <point x="435" y="765" type="curve" smooth="yes"/>
      <point x="523" y="765"/>
      <point x="589" y="738"/>
      <point x="633" y="704" type="curve"/>
      <point x="633" y="611" type="line"/>
      <point x="586" y="650"/>
      <point x="527" y="683"/>
      <point x="441" y="683" type="curve" smooth="yes"/>
      <point x="285" y="683"/>
      <point x="196" y="576"/>
      <point x="196" y="375" type="curve" smooth="yes"/>
      <point x="196" y="180"/>
      <point x="275" y="68"/>
      <point x="446" y="68" type="curve" smooth="yes"/>
      <point x="531" y="68"/>
      <point x="601" y="96"/>
      <point x="642" y="132" type="curve"/>
    </contour>
  </outline>
</glyph>
<glyph name="hryvnia" format="2">
  <advance width="677"/>
  <unicode hex="20B4"/>
  <outline>
    <contour>
      <point x="353" y="-15" type="curve" smooth="yes"/>
      <point x="463" y="-15"/>
      <point x="555" y="12"/>
      <point x="609" y="48" type="curve"/>
      <point x="609" y="140" type="line"/>
      <point x="517" y="81"/>
      <point x="429" y="66"/>
      <point x="352" y="66" type="curve" smooth="yes"/>
      <point x="211" y="66"/>
      <point x="173" y="116"/>
      <point x="173" y="182" type="curve" smooth="yes"/>
      <point x="173" y="231"/>
      <point x="194" y="270"/>
      <point x="246" y="293" type="curve"/>
      <point x="155" y="293" type="line"/>
      <point x="112" y="267"/>
      <point x="87" y="227"/>
      <point x="87" y="168" type="curve" smooth="yes"/>
      <point x="87" y="60"/>
      <point x="170" y="-15"/>
    </contour>
    <contour>
      <point x="56" y="254" type="line"/>
      <point x="621" y="254" type="line"/>
      <point x="621" y="332" type="line"/>
      <point x="56" y="332" type="line"/>
    </contour>
    <contour>
      <point x="56" y="404" type="line"/>
      <point x="621" y="404" type="line"/>
      <point x="621" y="482" type="line"/>
      <point x="56" y="482" type="line"/>
    </contour>
    <contour>
      <point x="385" y="442" type="curve"/>
      <point x="504" y="442" type="line"/>
      <point x="561" y="473"/>
      <point x="590" y="516"/>
      <point x="590" y="576" type="curve" smooth="yes"/>
      <point x="590" y="680"/>
      <point x="503" y="765"/>
      <point x="337" y="765" type="curve" smooth="yes"/>
      <point x="241" y="765"/>
      <point x="159" y="737"/>
      <point x="105" y="704" type="curve"/>
      <point x="105" y="615" type="line"/>
      <point x="196" y="674"/>
      <point x="272" y="684"/>
      <point x="328" y="684" type="curve" smooth="yes"/>
      <point x="470" y="684"/>
      <point x="504" y="621"/>
      <point x="504" y="560" type="curve" smooth="yes"/>
      <point x="504" y="507"/>
      <point x="479" y="467"/>
    </contour>
  </outline>
</glyph>
<glyph name="rupeeIndian" format="2">
  <advance width="677"/>
  <unicode hex="20B9"/>
  <outline>
    <contour>
      <point x="391" y="0" type="line"/>
      <point x="498" y="0" type="line"/>
      <point x="194" y="343" type="line"/>
      <point x="87" y="343" type="line"/>
    </contour>
    <contour>
      <point x="87" y="343" type="line"/>
      <point x="127" y="309" type="line"/>
      <point x="235" y="309" type="line" smooth="yes"/>
      <point x="402" y="309"/>
      <point x="486" y="384"/>
      <point x="486" y="530" type="curve" smooth="yes"/>
      <point x="486" y="665"/>
      <point x="402" y="750"/>
      <point x="235" y="750" type="curve" smooth="yes"/>
      <point x="87" y="750" type="line"/>
      <point x="87" y="670" type="line"/>
      <point x="235" y="670" type="line" smooth="yes"/>
      <point x="351" y="670"/>
      <point x="402" y="626"/>
      <point x="402" y="530" type="curve" smooth="yes"/>
      <point x="402" y="431"/>
      <point x="351" y="386"/>
      <point x="235" y="386" type="curve" smooth="yes"/>
      <point x="87" y="386" type="line"/>
    </contour>
    <contour>
      <point x="231" y="670" type="line"/>
      <point x="598" y="670" type="line"/>
      <point x="598" y="750" type="line"/>
      <point x="231" y="750" type="line"/>
    </contour>
    <contour>
      <point x="87" y="487" type="line"/>
      <point x="598" y="487" type="line"/>
      <point x="598" y="567" type="line"/>
      <point x="87" y="567" type="line"/>
    </contour>
  </outline>
</glyph>
<glyph name="ruble" format="2">
  <advance width="677"/>
  <unicode hex="20BD"/>
  <outline>
    <contour>
      <point x="40" y="146" type="line"/>
      <point x="407" y="146" type="line"/>
      <point x="407" y="227" type="line"/>
      <point x="40" y="227" type="line"/>
    </contour>
    <contour>
      <point x="40" y="306" type="line"/>
      <point x="237" y="306" type="line"/>
      <point x="237" y="387" type="line"/>
      <point x="40" y="387" type="line"/>
    </contour>
    <contour>
      <point x="196" y="306" type="line"/>
      <point x="376" y="306" type="line" smooth="yes"/>
      <point x="543" y="306"/>
      <point x="627" y="384"/>
      <point x="627" y="530" type="curve" smooth="yes"/>
      <point x="627" y="665"/>
      <point x="543" y="750"/>
      <point x="376" y="750" type="curve" smooth="yes"/>
      <point x="196" y="750" type="line"/>
      <point x="196" y="669" type="line"/>
      <point x="376" y="669" type="line" smooth="yes"/>
      <point x="492" y="669"/>
      <point x="543" y="626"/>
      <point x="543" y="530" type="curve" smooth="yes"/>
      <point x="543" y="431"/>
      <point x="492" y="387"/>
      <point x="376" y="387" type="curve" smooth="yes"/>
      <point x="196" y="387" type="line"/>
    </contour>
    <contour>
      <point x="130" y="0" type="line"/>
      <point x="214" y="0" type="line"/>
      <point x="214" y="750" type="line"/>
      <point x="130" y="750" type="line"/>
    </contour>
  </outline>
</glyph>
<glyph name="trademark" format="2">
  <advance width="676"/>
  <unicode hex="2122"/>
  <outline>
    <contour>
      <point x="135" y="750" type="line"/>
      <point x="135" y="475" type="line"/>
      <point x="186" y="475" type="line"/>
      <point x="186" y="750" type="line"/>
    </contour>
    <contour>
      <point x="266" y="750" type="line"/>
      <point x="55" y="750" type="line"/>
      <point x="55" y="700" type="line"/>
      <point x="266" y="700" type="line"/>
    </contour>
    <contour>
      <point x="548" y="750" type="line"/>
      <point x="548" y="473" type="line"/>
      <point x="596" y="473" type="line"/>
      <point x="596" y="750" type="line"/>
    </contour>
    <contour>
      <point x="307" y="750" type="line"/>
      <point x="307" y="473" type="line"/>
      <point x="356" y="473" type="line"/>
      <point x="356" y="750" type="line"/>
    </contour>
    <contour>
      <point x="338" y="750" type="line"/>
      <point x="423" y="473" type="line"/>
      <point x="469" y="473" type="line"/>
      <point x="384" y="750" type="line"/>
    </contour>
    <contour>
      <point x="566" y="750" type="line"/>
      <point x="520" y="750" type="line"/>
      <point x="434" y="473" type="line"/>
      <point x="481" y="473" type="line"/>
    </contour>
  </outline>
</glyph>
<glyph name="f_f" format="2">
  <advance width="718"/>
  <outline>
    <contour>
      <point x="125" y="573" type="curve" smooth="yes"/>
      <point x="125" y="0" type="line"/>
      <point x="206" y="0" type="line"/>
      <point x="206" y="585" type="line" smooth="yes"/>
      <point x="206" y="656"/>
      <point x="243" y="690"/>
      <point x="307" y="690" type="curve" smooth="yes"/>
      <point x="339" y="690"/>
      <point x="369" y="684"/>
      <point x="398" y="673" type="curve"/>
      <point x="398" y="751" type="line"/>
      <point x="369" y="760"/>
      <point x="343" y="765"/>
      <point x="301" y="765" type="curve" smooth="yes"/>
      <point x="184" y="765"/>
      <point x="125" y="692"/>
    </contour>
    <contour>
      <point x="35" y="516" type="line"/>
      <point x="35" y="444" type="line"/>
      <point x="693" y="444" type="line"/>
      <point x="693" y="516" type="line"/>
    </contour>
    <contour>
      <point x="469" y="563" type="curve" smooth="yes"/>
      <point x="469" y="0" type="line"/>
      <point x="550" y="0" type="line"/>
      <point x="550" y="575" type="line" smooth="yes"/>
      <point x="550" y="646"/>
      <point x="587" y="690"/>
      <point x="651" y="690" type="curve" smooth="yes"/>
      <point x="683" y="690"/>
      <point x="713" y="684"/>
      <point x="742" y="673" type="curve"/>
      <point x="742" y="751" type="line"/>
      <point x="713" y="760"/>
      <point x="687" y="765"/>
      <point x="645" y="765" type="curve" smooth="yes"/>
      <point x="528" y="765"/>
      <point x="469" y="682"/>
    </contour>
  </outline>
</glyph>
